<svg width="140" height="81" viewBox="0 0 140 81" fill="none" xmlns="http://www.w3.org/2000/svg">
<path fill-rule="evenodd" clip-rule="evenodd" d="M20.1817 75.1137C20.1645 75.1471 20.1312 75.2139 20.1148 75.2644C18.3061 78.676 14.7549 81.0002 10.7019 81.0002C4.82317 81.0002 0 76.0831 0 70.0125C0 63.9754 4.82317 59.0249 10.7019 59.0249C14.772 59.0249 18.3395 61.3996 20.1312 64.8617C20.1817 64.9285 20.198 64.9619 20.2486 65.0621C20.2657 65.0792 16.832 67.554 16.7985 67.5043C16.7814 67.4375 16.7651 67.387 16.7316 67.3536C15.7429 64.8951 13.399 63.2561 10.7019 63.3066C7.10087 63.34 4.13627 66.3166 4.13627 70.0125C4.13627 73.7419 7.10087 76.7527 10.7019 76.7527C13.3149 76.7527 15.5927 75.1471 16.6304 72.8726C16.681 72.7888 16.6982 72.722 16.7316 72.6552L20.1817 75.1137Z" fill="#777777"/>
<path fill-rule="evenodd" clip-rule="evenodd" d="M24.6201 59.2261H28.74V66.9023H39.5602V59.2261H43.7136V80.5822H39.5602V71.2002H28.74V80.5822H24.6201V59.2261Z" fill="#777777"/>
<path fill-rule="evenodd" clip-rule="evenodd" d="M101.864 80.5822V59.2261H116.82V63.5403H106.034V67.8048H116V72.0694H106.034V76.3339H118.344V80.5822H101.864Z" fill="#777777"/>
<path fill-rule="evenodd" clip-rule="evenodd" d="M124.188 80.5822V59.2261H128.375V76.3339H139.999V80.5822H124.188Z" fill="#777777"/>
<path fill-rule="evenodd" clip-rule="evenodd" d="M79.3881 80.5822H79.2542H75.2012V59.2261H75.5023H81.0123L90.174 72.0694V59.2261H94.3274V80.5822H91.0112L79.3881 64.4771V80.5822Z" fill="#777777"/>
<path fill-rule="evenodd" clip-rule="evenodd" d="M59.4398 63.5403L55.789 72.0694H63.2586L59.4398 63.5403ZM53.9126 76.3339L52.0036 80.5822H47.0459L56.5257 59.2261H62.3205L71.8671 80.5822H66.9094L64.984 76.3339H53.9126Z" fill="#777777"/>
<path fill-rule="evenodd" clip-rule="evenodd" d="M70.2796 39.4209C67.3035 41.1392 63.743 42.1605 59.9496 42.1605C52.1881 42.1605 45.3899 37.9353 41.7131 31.6703C41.7131 31.6412 41.6846 31.6412 41.6846 31.6121C41.6846 31.583 41.6548 31.583 41.6548 31.5539L44.6311 30.0101L47.6072 28.4941C47.6371 28.5246 47.6669 28.5523 47.6953 28.6119C50.2338 32.7193 54.786 35.459 59.9496 35.459C61.614 35.459 63.2186 35.168 64.6485 34.701C61.4676 31.0592 59.5418 26.281 59.5418 21.065C59.5418 15.8795 61.4392 11.1014 64.5902 7.42909C63.1603 6.93437 61.5842 6.67246 59.9496 6.67246C54.8443 6.67246 50.1172 9.41074 47.5205 13.8105C47.4906 13.8396 47.4906 13.8701 47.4906 13.8978L41.5098 10.8104C41.5382 10.7522 41.5681 10.694 41.5965 10.6635C45.2449 4.2834 52.1298 0 59.9496 0C63.743 0 67.3035 1.01992 70.2796 2.76876C73.2557 1.01992 76.8161 0 80.6082 0C88.4282 0 95.3144 4.2834 98.9616 10.6635C98.9907 10.694 99.0199 10.7522 99.049 10.8104L93.0676 13.8978C93.0676 13.8701 93.0676 13.8396 93.0384 13.8105C90.4419 9.41074 85.715 6.67246 80.6082 6.67246C78.975 6.67246 77.3989 6.93437 75.969 7.42909C79.12 11.1014 81.0174 15.8795 81.0174 21.065C81.0174 26.281 79.0916 31.0592 75.9107 34.701C77.3406 35.168 78.9452 35.459 80.6082 35.459C85.7733 35.459 90.3253 32.7193 92.8636 28.6119C92.8927 28.5523 92.9219 28.5246 92.951 28.4941L95.9265 30.0101L98.9033 31.5539C98.9033 31.583 98.8742 31.583 98.8742 31.6121C98.8742 31.6412 98.845 31.6412 98.845 31.6703C95.1687 37.9353 88.3699 42.1605 80.6082 42.1605C76.8161 42.1605 73.2557 41.1392 70.2796 39.4209ZM70.2796 31.0592C67.8279 28.4664 66.253 24.941 66.253 21.065C66.253 17.2486 67.7412 13.7814 70.2796 11.1887C72.818 13.7814 74.3062 17.2486 74.3062 21.065C74.3062 24.941 72.7299 28.4664 70.2796 31.0592Z" fill="#777777"/>
</svg>
