<svg width="120" height="34" viewBox="0 0 120 34" fill="none" xmlns="http://www.w3.org/2000/svg">
<path d="M44.1531 22.8187C41.7202 21.4535 38.5312 20.6733 35.112 20.6733C31.6599 20.6733 28.4709 21.4535 26.0709 22.8187C24.2955 23.8588 23.2764 25.484 23.2764 27.3368C23.2764 29.1896 24.2955 30.7823 26.0709 31.855C28.5038 33.2202 31.6928 34.0003 35.112 34.0003C38.564 34.0003 41.7531 33.2202 44.1531 31.855C45.9284 30.8148 46.9476 29.1896 46.9476 27.3368C46.9476 25.484 45.9284 23.8913 44.1531 22.8187ZM35.0791 33.3827C32.9092 33.3827 29.2599 32.115 29.2599 27.3368C29.2599 23.1437 32.186 21.2909 35.0791 21.2909C38.9914 21.2909 41.2599 23.5663 41.2599 27.3368C41.3257 31.3674 39.2544 33.3827 35.0791 33.3827Z" fill="#777777"/>
<path d="M120 21.4858V20.8682H110.17V21.4858H112.241V26.719H103.989V21.4858H106.126V20.9657V20.8682H96.2627V21.4858H98.3997V33.22H96.2627V33.8051H106.126V33.22H103.989V27.3366H112.241V33.22H110.17V33.8051H119.934H120V33.22H117.863V21.4858H120Z" fill="#777777"/>
<path d="M58.9479 20.6733H58.6191L48.2958 33.2202H45.9287V33.8378H51.8465V33.2202H49.052L51.5506 30.2297H60.8219L63.6164 33.2852H60.9205V33.9028H73.2821V33.2527H70.5205L58.9479 20.6733ZM52.0767 29.5471L55.8904 24.8665L60.2958 29.5471H52.0767Z" fill="#777777"/>
<path d="M16.9973 22.1358C16.8329 22.0708 16.3397 21.7458 15.5178 21.4207C14.6301 21.0957 13.1836 20.6406 11.3425 20.6406C8.38356 20.6406 5.6548 21.1932 3.61644 22.2334C1.24932 23.4035 0 25.1913 0 27.3041C0 31.6922 4.14247 33.9676 12.0329 33.9676C13.9726 33.9676 15.6493 33.48 17.0301 32.5049L19.3973 33.7726H19.8575V28.7343H19.3973L19.3644 28.7668V28.7993C19.3644 28.8318 18.9699 29.9695 17.8849 31.1072C16.8986 32.1473 15.0904 33.415 12.1315 33.415C10.1589 33.415 8.54795 32.6999 7.49589 31.3347C6.67397 30.2945 6.18082 28.8318 6.18082 27.3691C6.18082 23.436 9.27123 21.3232 12.1315 21.3232C14.1041 21.3232 15.8795 21.9408 17.2603 23.111C18.4438 24.0861 19.1014 25.2238 19.3644 26.0039V26.0364H19.8575V20.9007H19.3973L16.9973 22.1358Z" fill="#777777"/>
<path d="M89.8195 22.1358C89.6551 22.0708 89.162 21.7458 88.3401 21.4207C87.4524 21.0957 86.0058 20.6406 84.1647 20.6406C81.2058 20.6406 78.4771 21.1932 76.4387 22.2334C74.0716 23.4035 72.8223 25.1913 72.8223 27.3041C72.8223 31.6922 76.9647 33.9676 84.8551 33.9676C86.7949 33.9676 88.4716 33.48 89.8524 32.5049L92.2195 33.7726H92.6798V28.7343H92.2195L92.1867 28.7668V28.7993C92.1867 28.8318 91.7921 29.9695 90.7072 31.1072C89.7209 32.1473 87.9127 33.415 84.9538 33.415C82.9812 33.415 81.3702 32.6999 80.3182 31.3347C79.4962 30.2945 79.0031 28.8318 79.0031 27.3691C79.0031 23.436 82.0935 21.3232 84.9538 21.3232C86.9264 21.3232 88.7017 21.9408 90.0825 23.111C91.2661 24.0861 91.9236 25.2238 92.1867 26.0039V26.0364H92.6798V20.9007H92.2195L89.8195 22.1358Z" fill="#777777"/>
<path d="M67.2989 10.8562V8.09326H65.1948C65.1619 10.011 66.8058 10.6936 67.2989 10.8562Z" fill="#777777"/>
<path d="M70.9482 10.8562C71.014 10.8237 71.1126 10.8237 71.2441 10.7262C71.9674 8.80837 73.0524 8.12577 73.1181 8.09326C72.4606 8.09326 71.4743 8.09326 70.9811 8.09326V10.8562H70.9482Z" fill="#777777"/>
<path d="M50.0052 9.0042L50.3011 8.45162C50.1367 8.41912 49.9394 8.41912 49.7422 8.45162L50.0052 9.0042Z" fill="#777777"/>
<path d="M52.0114 8.58136C51.8799 8.02878 51.8141 7.28117 51.8141 6.89111C51.2552 7.02113 50.7949 7.02113 50.6963 7.02113V8.1263C51.2552 8.25631 51.5182 8.35383 52.0114 8.58136Z" fill="#777777"/>
<path d="M50.3011 8.06115V7.021C50.2353 7.021 49.8079 7.021 49.7422 7.021V8.06115C49.7422 8.06115 49.8737 8.06115 50.0381 8.06115C50.1696 8.06115 50.3011 8.06115 50.3011 8.06115Z" fill="#777777"/>
<path d="M55.3973 10.1417C55.8576 9.42659 55.8576 8.874 55.8576 8.874C55.8576 8.09389 55.3644 7.44379 55.0357 7.18376C54.148 6.46865 52.2411 6.82621 52.2411 6.82621C52.2083 7.11875 52.2083 7.99638 52.4384 8.80899C53.2932 9.26406 54.8713 9.97917 55.3973 10.1417Z" fill="#777777"/>
<path d="M53.2933 11.0516C53.096 10.7266 52.6686 10.2715 51.9453 10.6616C51.9453 10.6616 51.9124 11.3117 52.2412 11.5392C52.3727 11.6692 52.7344 12.0918 52.6028 12.4168C52.57 12.5794 51.7809 13.2294 51.5837 13.4245C51.1891 13.7495 51.2549 13.9446 51.2549 13.9446C51.3207 14.3021 51.0576 14.9522 51.2878 15.2447C51.3207 15.2773 51.3207 15.2773 51.3207 15.2773C51.5508 15.2773 51.9453 14.7247 51.9453 14.5947C51.9453 14.5296 51.7152 14.2046 51.7152 14.1396C51.7481 14.0746 51.7809 14.1071 51.8796 13.9771C51.9124 13.9446 51.9124 13.8145 51.9124 13.782C51.9453 13.5545 53.0302 12.6769 53.2275 12.5794C53.5563 12.3843 53.2933 12.1243 53.2933 12.1243C52.8987 11.6692 53.2604 11.0841 53.2933 11.0516Z" fill="#777777"/>
<path d="M49.3479 8.4512C49.3479 8.4512 48 8.64623 47.0466 9.58887C46.9808 9.65388 46.9151 9.58887 46.9151 9.58887C46.9151 9.58887 46.9151 9.52386 46.9479 9.42635C47.3425 8.90627 48.5589 8.12615 49.2822 8.06114V6.92347C48.9863 6.89097 48.7233 6.79346 48.6246 6.79346C47.9342 7.41105 46.6192 8.38619 45.3699 8.93877C45.2383 9.55637 45.6657 9.8164 45.6657 10.1089C45.6657 10.174 45.6329 10.239 45.6 10.2715C45.3699 10.499 44.2849 11.2791 44.1534 11.5717C44.0877 11.7667 44.3178 13.1969 44.3178 13.6845C44.3178 14.042 44.6137 14.237 44.6137 14.237C44.7452 14.3996 45.2712 15.0497 45.5014 15.0497C45.6657 14.9847 45.8959 14.0095 45.337 14.107C45.0411 14.1395 45.0411 14.107 45.1068 13.9445C45.1068 13.8795 45.074 13.782 44.9753 13.7495C44.6137 13.587 44.5151 11.7992 44.9753 11.6367C46.5863 11.0191 47.737 10.5965 47.8027 9.88141C48.2959 10.5315 47.1452 11.0841 47.1123 11.0841C47.1781 11.3766 47.4082 11.8642 47.3425 12.0917C47.3096 12.2543 47.4082 12.8718 47.4082 12.8718C47.5726 13.2294 47.5726 14.5296 47.4082 14.6921C47.3753 14.7246 47.3425 14.8546 47.2767 14.9197C47.1452 15.0822 46.8822 15.3097 46.8164 15.6348C46.7836 15.8298 47.8027 15.6348 47.7699 15.3422C47.7699 15.2772 47.7041 15.1472 47.7699 15.0497C47.8027 14.9847 47.9014 15.0172 47.9671 14.9847C48.0329 14.9197 48.1315 14.7896 48.0986 14.6596C47.9342 14.2045 47.9014 13.3269 48.0329 12.9044C48.0657 12.7743 48.0986 12.1242 48.0657 11.9292C48.0657 11.7667 48.3616 10.5965 48.3616 10.564C48.6904 10.629 49.0849 10.7265 49.8082 10.7265C49.8082 10.369 49.8082 10.239 49.8082 9.23132L49.3479 8.4512Z" fill="#777777"/>
<path d="M52.7997 10.3364C52.3395 9.62127 52.1751 9.29623 52.1422 9.06869C51.5175 8.67864 50.86 8.51611 50.6956 8.51611C50.5641 8.71114 50.2354 9.32873 50.2354 9.32873C50.2354 10.3364 50.2354 10.4664 50.2354 10.8239C51.123 10.6939 51.9778 9.97883 52.7997 10.3364Z" fill="#777777"/>
<path d="M55.7588 10.3041C56.0875 10.3691 56.2519 10.3691 56.6465 10.4341C56.8766 8.12631 56.2848 7.63873 55.4629 7.34619C55.7917 7.57372 56.778 8.84141 55.7588 10.3041Z" fill="#777777"/>
<path d="M42.7071 6.11095C42.6742 6.07844 42.6742 5.91592 42.7729 5.7534C42.74 5.7534 42.5427 5.7534 42.5427 5.7534C42.5427 5.7534 42.5427 5.75339 42.5427 5.72089L42.477 5.1033L43.003 5.03829C43.003 5.03829 43.003 4.90827 42.9701 4.84326C42.5756 4.84326 42.1153 5.00579 42.0167 5.00579C41.9509 5.52586 42.1811 5.68839 42.1811 5.68839C42.3783 5.88342 42.5098 6.56602 42.5427 6.63102C42.6742 6.69603 42.9372 6.66353 43.0688 6.66353C42.5427 6.59852 42.7071 6.11095 42.7071 6.11095Z" fill="#777777"/>
<path d="M45.3701 5.65576C45.3043 5.72077 44.9756 5.81829 44.8112 5.98081C44.9427 6.30586 44.0879 7.44352 44.0879 8.22364C44.0879 8.25614 44.0879 8.22364 44.0879 8.25614C44.2523 8.06112 45.0413 7.41102 45.3043 7.24849C45.4687 6.79343 45.5345 5.98081 45.3701 5.65576Z" fill="#777777"/>
<path d="M42.5752 7.08614C42.5752 7.08614 42.5752 7.11865 42.6081 7.21617C42.6738 7.50871 42.6738 7.60622 42.9697 7.60622C43.0026 7.60622 43.5944 7.63873 43.5286 7.28117C43.5286 7.24867 43.693 7.15115 43.6601 7.08614C43.6601 6.95613 43.6272 7.02114 43.6272 7.02114C43.4629 7.05364 42.8053 7.11865 42.5752 7.08614Z" fill="#777777"/>
<path d="M42.3125 4.32315C42.1152 4.45317 42.0166 4.51818 42.0166 4.61569C42.0495 4.61569 42.181 4.58319 42.3454 4.55069C42.4111 4.55069 42.5098 4.51818 42.5755 4.51818C42.6413 4.51818 42.7728 4.48567 42.8714 4.48567C42.6413 4.12812 42.181 3.47803 42.181 3.47803C42.181 3.47803 42.181 3.51053 42.181 3.67305C42.0824 3.9981 42.3125 4.32315 42.3125 4.32315Z" fill="#777777"/>
<path d="M45.2717 10.1738C45.0745 9.7187 44.8772 9.29614 45.3046 7.6709C44.9429 7.96344 44.3183 8.51602 44.1539 8.80857C43.9895 9.29614 44.4827 9.75121 44.5155 9.97874C44.5484 10.3363 42.5758 10.9214 42.5101 10.9539C42.3457 11.0189 42.2142 11.2464 42.2142 11.4089C42.2142 11.5715 41.8197 12.6766 41.8197 12.7416C41.7868 12.8717 41.6553 13.5868 41.6553 13.5868C41.6882 13.8143 41.6882 14.5619 41.6882 14.5619C42.5758 14.3669 42.2471 13.6843 42.2142 13.6843C42.2142 13.6518 42.2471 13.6518 42.2799 13.6193C42.3128 13.5543 42.3457 13.3917 42.3128 13.2942C42.1813 13.1317 42.2471 13.0667 42.2471 13.0667C42.4114 12.4166 42.7731 11.5715 43.0361 11.4415C43.069 11.409 43.9895 11.2789 44.2525 11.2464C44.3512 10.9864 45.3046 10.2063 45.2717 10.1738Z" fill="#777777"/>
<path d="M52.1419 12.1239C51.9447 11.9289 51.4844 11.2788 51.5173 10.8237C51.2214 10.8887 50.8598 11.0513 50.8598 11.0513C50.8926 11.6038 51.4844 11.8639 51.4844 12.319C51.4844 12.5465 50.8269 13.0341 50.6296 13.2616C50.2351 13.5866 50.3009 13.7817 50.3009 13.7817C50.4324 14.0742 50.1365 14.6268 50.3337 14.9843C50.3337 15.0168 50.3666 15.0168 50.3995 15.0168C50.6296 15.0168 51.0241 14.4968 51.0241 14.3342C51.0241 14.3017 50.6296 13.9442 50.794 13.9442C51.0241 13.9117 50.9913 13.7817 50.9913 13.6191C50.9913 13.2941 52.2735 12.579 52.2735 12.4815C52.2406 12.319 52.1748 12.1889 52.1419 12.1239Z" fill="#777777"/>
<path d="M45.8626 11.6689C45.9284 12.124 46.3229 12.4816 46.3887 12.6441C46.553 13.0991 46.5859 13.7492 46.6188 13.8468C46.6517 14.3343 46.4215 14.7894 46.1585 14.8219C46.027 14.8544 45.6982 15.277 45.6982 15.342C45.8297 15.537 46.553 15.407 46.553 15.407C46.6845 15.3745 46.7174 15.0819 46.7174 15.0819C46.5859 14.7569 46.8818 14.7244 46.9147 14.7244C47.2106 14.7244 47.1119 14.3343 47.1119 14.3343C47.0462 14.1718 46.8818 12.9691 46.9804 12.4816C47.0462 12.1565 46.9147 11.4739 46.8489 11.2139C46.6517 11.3439 46.3887 11.4739 45.8626 11.6689Z" fill="#777777"/>
<path d="M55.1016 6.98829C55.1344 7.0208 55.2659 7.11831 55.2659 7.11831C57.4358 7.15082 57.2057 9.88122 57.2057 10.0437L58.4879 9.58868C57.2385 5.98064 55.7262 6.59824 55.1016 6.98829Z" fill="#777777"/>
<path d="M55.5948 14.3019C55.5619 14.1394 55.1345 13.1642 55.266 12.4491C55.2003 12.4166 54.8057 12.2216 54.6414 12.0916C54.4112 11.9615 53.9509 11.7015 53.6222 11.3765C53.6222 11.3765 53.4578 11.604 53.4907 11.8965C54.477 12.2866 55.0359 13.1967 55.003 14.3669C55.003 14.5944 54.6085 15.082 54.6085 15.082C54.3783 15.4071 54.3783 15.5371 54.3783 15.5371C54.8386 15.6021 55.3318 15.5046 55.3318 15.5046C55.3647 15.4721 55.3647 15.277 55.3318 15.212C55.1016 14.9845 55.3646 14.822 55.3646 14.822C55.529 14.6594 55.6277 14.4969 55.5948 14.3019Z" fill="#777777"/>
<path d="M44.9752 3.80285C45.1067 3.5103 45.041 3.31527 45.0081 3.28277C44.8766 3.21776 44.3835 2.92522 44.2191 2.7627C44.1862 2.7627 44.2519 3.12025 44.2848 3.21776C44.3506 3.41279 44.4821 3.44529 44.4821 3.44529C44.4821 3.44529 44.252 3.57531 44.1533 3.64032C44.2848 3.64032 44.6465 3.5103 44.9752 3.80285Z" fill="#777777"/>
<path d="M43.8242 5.81796C43.9557 5.75295 44.3831 5.16787 44.4489 5.00534L44.0872 4.81031C44.0872 4.81031 44.0872 4.81032 44.0872 4.77781C44.2845 4.38775 44.4489 4.12772 44.4489 4.12772C44.4489 4.12772 44.4489 4.12772 44.4817 4.12772L44.8763 4.32274C44.942 4.16022 44.942 4.16022 45.0078 4.09521C44.8105 3.90018 44.3174 3.86768 44.1201 3.86768C43.9886 4.0627 43.7913 4.42026 43.7913 4.64779C43.7585 4.94033 43.4297 5.52542 43.4297 5.52542L43.8242 5.81796Z" fill="#777777"/>
<path d="M43.1345 5.75296C43.1017 5.72045 43.0688 5.81797 43.0688 5.91548C43.0359 5.98049 43.1016 5.98049 43.1016 6.0455C43.1016 6.17552 43.1017 6.33804 43.2332 6.43556C43.2989 6.50056 43.4304 6.56558 43.5948 6.56558C43.6277 6.56558 43.7921 6.53307 43.8907 6.40305C43.9236 6.37055 43.9564 6.43556 44.0222 6.40305C44.0551 6.37055 44.0551 6.33804 44.0222 6.33804C43.7263 6.24053 43.3647 6.013 43.1345 5.75296Z" fill="#777777"/>
<path d="M48.0002 5.42833C48.066 5.72088 48.3619 6.566 49.1509 6.69602L49.1838 6.63101C48.329 5.9159 48.7893 2.89296 46.0934 2.66543C45.2386 2.60042 44.9756 2.82795 44.9756 2.86045C44.9756 2.86045 45.1071 3.02298 45.2057 3.02298C47.0468 2.89296 47.5071 4.16065 48.0002 5.42833Z" fill="#777777"/>
<path d="M47.2111 4.6484C46.981 4.09582 46.3234 3.38072 45.5015 3.2832C45.5673 4.48588 44.2193 5.91609 44.3508 5.85108C44.6796 5.62355 44.8769 5.62355 45.1399 5.46102C45.2714 5.39601 45.5015 5.10347 45.5015 5.10347C46.2248 5.81858 45.5673 8.25644 45.5015 8.58148C46.8823 7.93139 48.1645 6.82623 48.3289 6.72871C47.8029 6.33865 47.4741 5.23349 47.2111 4.6484Z" fill="#777777"/>
<path d="M41.7532 4.45342C41.7861 4.38841 41.9505 4.16088 42.0491 4.12837C41.9176 4.06336 41.556 3.90084 41.3916 3.90084C41.3916 3.86833 41.556 4.25839 41.7532 4.45342Z" fill="#777777"/>
<path d="M70.554 4.0957H67.6279V10.9542C68.0882 11.0842 68.5156 11.1492 69.1074 11.1492C69.1074 11.1492 70.0608 11.1492 70.554 10.9542C70.554 9.32898 70.554 4.0957 70.554 4.0957ZM69.6334 8.25632C69.6334 8.38634 69.6005 8.41884 69.6005 8.41884H69.206H68.8115C68.8115 8.41884 68.7786 8.35383 68.7786 8.25632C68.7786 8.22381 68.7786 8.1263 68.7786 8.1263H69.6663V8.25632H69.6334ZM70.1594 7.80125C70.1594 7.80125 69.7649 7.80125 69.1074 7.80125C68.4827 7.80125 68.0882 7.80125 68.0882 7.80125V4.48576H70.1923V7.80125H70.1594Z" fill="#777777"/>
<path d="M66.0169 5.59065L66.0827 4.35547H65.6553L65.721 5.59065H66.0169Z" fill="#777777"/>
<path d="M62.8607 4.5181L62.6963 5.2332L61.6772 5.29821V5.78578H62.6306V5.81829C62.6306 5.81829 62.0059 5.8833 61.9073 5.94831C61.9073 5.94831 61.9073 6.01332 61.9073 6.07833C61.6114 6.11083 60.5265 6.27336 60.4279 6.46838C60.3621 6.66341 59.9018 7.50854 59.8689 7.67106C59.8032 7.86609 59.5402 8.12613 59.4744 8.15863C59.3429 8.22364 59.0799 8.15863 58.9484 8.02861C58.9155 7.99611 58.784 7.86609 58.7511 7.89859C58.7183 7.9311 58.6854 7.96361 58.6854 8.02861C58.5539 7.96361 58.4881 7.83358 58.3566 7.73607C58.3566 7.73607 58.2909 7.73607 58.2251 7.76858C58.1594 7.80108 58.2251 7.83358 58.2251 7.83358C58.4224 8.02861 58.6854 8.28865 58.9155 8.51619C59.4744 9.13378 60.1977 9.84888 60.9539 10.0114C60.1648 10.3039 59.2772 10.629 58.0279 10.629C56.2525 10.5965 54.6087 10.1089 52.7676 9.03626C53.6224 11.5066 56.0552 11.8317 56.3511 12.6768C56.5155 13.1969 56.5155 14.042 56.4169 14.367C56.384 14.5621 55.6936 15.2122 55.7922 15.4072C55.8251 15.4722 56.2854 15.5372 56.4498 15.4722C56.5155 15.4722 56.5813 15.4722 56.6142 15.4397C56.647 15.4072 56.6799 15.2122 56.647 15.1472C56.647 15.1147 56.5813 15.0822 56.5813 15.0822C56.5155 14.9521 56.647 14.8546 56.7457 14.8546C56.91 14.8546 57.0416 14.6921 56.9758 14.5621C56.8443 14.237 56.8114 12.3843 56.8114 12.3843C56.8443 12.1567 56.8114 11.8642 56.5813 11.7667C56.0224 11.6041 55.5621 10.7915 55.5292 10.564C55.9237 10.694 56.8443 10.9215 58.0279 10.9215C60.1648 10.9215 61.2826 9.91389 63.1895 9.91389C64.7018 9.91389 65.3922 10.564 65.7868 10.759C66.5758 11.1491 67.4635 11.5391 68.7128 11.6366L68.6799 12.4493C68.6799 12.4818 68.6799 12.5143 68.647 12.5143H67.7922C67.7922 12.5143 67.7922 12.5468 67.7922 12.6443C67.7922 12.6768 67.7922 12.7093 67.7922 12.7093L67.9237 12.8718C68.2525 12.8718 70.4224 12.8718 70.7183 12.8718C70.7511 12.8718 70.8498 12.7093 70.8498 12.7093C70.8498 12.7093 70.8826 12.6768 70.8826 12.6443C70.8826 12.5793 70.8826 12.5143 70.8826 12.5143H69.9292C69.8963 12.5143 69.8963 12.4818 69.8963 12.4493L69.8635 11.6366C71.1457 11.5716 71.9676 11.1491 72.0004 11.1166C72.0004 11.1166 72.1977 10.2389 72.9539 9.2638C73.3484 8.74372 74.2361 7.67106 76.2416 7.67106C76.2416 7.67106 76.3073 7.67106 76.3073 7.54104C76.3073 7.41102 76.2416 7.41102 76.2416 7.41102C75.847 7.41102 75.0909 7.47603 74.6963 7.54104C74.532 7.54104 74.4005 7.54104 74.3347 7.54104C74.1374 7.50854 73.9731 7.31351 73.9731 7.05347C73.9731 7.02097 73.9731 5.52575 73.9731 4.94066H74.3347L74.3676 5.81829H74.4991C74.6963 5.81829 74.7292 6.01332 74.7292 6.01332L74.7621 6.30586H74.8936L74.9265 6.01332C74.9265 6.01332 74.9594 5.81829 75.1566 5.81829H75.2881L75.4525 3.73798H75.1237C74.9265 3.73798 74.9265 3.54295 74.9265 3.54295C74.9265 3.54295 74.9265 3.41294 74.795 3.41294C74.7292 3.41294 74.6635 3.54295 74.6635 3.54295C74.6635 3.54295 74.6635 3.73798 74.4662 3.73798H74.1374L74.2032 4.61561H73.8744C73.8744 4.5506 73.8744 3.31542 73.8744 3.31542H74.0059C74.0059 3.31542 74.0388 3.28292 74.0388 3.25041C74.0388 3.21791 74.0388 3.1854 74.0388 3.1854C74.0388 3.1854 72.2306 2.86035 69.2388 2.86035C66.3128 2.86035 64.4717 3.21791 64.4717 3.21791C64.4717 3.21791 64.4717 3.25041 64.4717 3.28291C64.4717 3.31542 64.5046 3.34792 64.5046 3.34792H64.6361V6.95596C64.6361 6.98846 64.6361 7.50854 64.5046 7.67106C64.4717 7.70357 64.4717 7.70357 64.4388 7.70357C64.3731 7.70357 64.3731 7.67106 64.3731 7.63856C64.3073 7.47603 64.0772 6.98846 64.0772 6.95596H64.2744C64.2744 6.95596 64.3073 6.92345 64.3073 6.89095C64.3073 6.85844 64.2744 6.82594 64.2744 6.82594H63.3868C64.0772 6.69592 64.1758 6.33837 64.1758 6.01332C64.2087 4.5506 64.1429 4.16054 64.0443 3.70548C64.0114 3.54295 63.8799 3.31542 63.8799 3.31542L63.058 4.29056L62.8607 4.5181ZM74.9922 4.42058L74.8607 5.78578H74.3676L74.3018 4.42058H74.9922ZM61.0196 9.68636C60.9868 9.71886 60.8224 9.75137 60.8224 9.81638C60.8224 9.88139 60.8224 9.88139 60.8552 9.9464C60.395 9.88139 59.9676 9.55634 59.5073 9.13378C59.5402 9.10127 60.5594 7.96361 60.6251 7.86609C60.7566 8.06112 61.1183 8.51618 61.184 8.6462C61.6114 9.36131 61.2826 9.55634 61.0196 9.68636ZM62.2032 9.36131C62.1374 9.16628 61.8744 8.32116 61.8415 8.15863C61.7758 7.9636 61.5128 7.44353 61.447 7.37852C61.4142 7.37852 61.3155 7.44353 61.3155 7.44353C61.3155 7.44353 61.0196 7.2485 61.1511 7.05347C61.3155 6.85844 62.1703 6.98846 62.3347 6.98846V8.6462C62.3347 8.67871 62.3676 9.03626 62.2032 9.36131ZM65.5895 3.99802C65.7539 3.99802 65.7539 3.8355 65.7539 3.8355C65.7539 3.8355 65.7539 3.77049 65.8196 3.77049C65.8854 3.77049 65.8854 3.8355 65.8854 3.8355C65.8854 3.8355 65.8854 3.99802 66.0826 3.99802H66.3128L66.1484 5.81829H66.0826C65.8854 5.81829 65.8525 6.01332 65.8525 6.01332L65.8196 6.20835H65.6881L65.6552 6.01332C65.6552 6.01332 65.6224 5.81829 65.4251 5.81829H65.3594L65.195 3.99802H65.5895ZM69.3703 12.6443C69.3703 12.6768 69.3703 12.7093 69.3374 12.7093H68.8114C68.7785 12.7093 68.7785 12.6768 68.7785 12.6443L68.7457 11.8317C68.91 11.8642 69.3046 11.8642 69.4361 11.8317L69.3703 12.6443ZM71.5073 11.0516C71.5073 11.0516 70.4881 11.5391 69.0744 11.5391C68.4169 11.5391 67.7922 11.5066 67.2333 11.3116C66.7073 11.1491 64.7018 10.3365 64.7018 8.02861V7.76858H67.2005V3.67297H70.8826V7.73607H73.3484L73.71 8.02861C72.0005 9.10127 71.5073 11.0516 71.5073 11.0516Z" fill="#777777"/>
<path d="M61.5448 4.12811C61.2161 3.73805 60.5585 3.413 59.7037 3.02294L59.0462 1.98279C59.0462 1.98279 59.0462 1.98279 59.0462 1.95029C57.8955 0.130022 56.9421 0 56.712 0H56.6791C56.4489 0 56.2846 0.13002 56.1859 0.292544C56.0544 0.585087 56.153 0.975144 56.4161 1.43021C56.8763 2.08031 58.027 2.53537 59.112 2.95793C59.2763 3.02294 59.4407 3.08795 59.5722 3.12046L60.953 5.29828H60.9202C60.8544 5.29828 60.69 5.29828 60.7229 5.36329C60.7558 5.49331 60.8873 5.36329 60.9202 5.52581C60.9859 5.75335 61.4791 5.72084 61.4791 5.72084L61.3147 5.26578H61.1832L59.8681 3.18547C60.5585 3.47801 61.1832 3.70555 61.4791 4.0631L61.512 4.0956C61.5448 4.0956 61.5448 4.0956 61.5448 4.0631C61.5777 4.16061 61.5777 4.16061 61.5448 4.12811ZM59.1777 2.82792C58.1257 2.37285 57.0078 1.95029 56.5804 1.3652C56.3503 1.00765 56.2188 0.650094 56.3503 0.422561C56.3832 0.292542 56.5147 0.260039 56.6791 0.260039C56.6791 0.260039 56.6791 0.260039 56.712 0.260039C57.1722 0.260039 58.027 0.747612 58.8818 2.11281L59.4078 2.92543C59.3421 2.86042 59.2435 2.86042 59.1777 2.82792Z" fill="#777777"/>
<path d="M44.1204 3.28281C43.1341 3.2503 42.6738 3.73788 42.6738 3.73788C42.6738 3.73788 43.0026 4.09543 43.0683 4.22545C43.2656 4.51799 43.2327 4.77803 43.2327 5.00556C43.43 4.71302 43.3642 4.22545 43.693 3.70537C43.8245 3.54285 43.9889 3.41283 44.1533 3.38032C44.1204 3.31531 44.1204 3.31531 44.1204 3.28281Z" fill="#777777"/>
<path d="M62.9264 4.42072L62.9922 3.90065L63.0579 3.83563L63.025 3.6081L63.5839 3.38057C63.5511 3.31556 63.5511 3.31556 63.6168 3.21805C63.6497 3.18554 63.847 2.99051 63.9127 2.9255C63.9785 2.56795 63.4524 2.30791 63.1237 2.40543C62.9922 2.40543 62.7292 2.43793 62.5648 2.40543C62.5319 2.40543 62.4333 2.40543 62.4333 2.40543L62.4004 2.47043C62.4004 2.50294 62.6305 2.76298 62.7292 2.86049C62.7949 2.9255 62.5319 3.18554 62.6634 3.21805C62.6634 3.21805 62.7292 3.21805 62.7292 3.25055C62.7292 3.25055 62.7292 3.31556 62.7292 3.38057L62.762 3.41308C62.762 3.44558 62.762 3.5756 62.7949 3.6081C62.8278 3.64061 63.025 3.67311 63.025 3.67311C63.025 3.67311 63.025 3.67311 63.025 3.70562L62.9593 3.73812C62.9264 3.73812 62.8278 3.80313 62.9264 3.86814C62.9593 3.90065 62.9922 3.93315 62.9922 3.93315C62.9593 3.96565 62.8607 3.99816 62.8607 4.16068C62.8607 4.32321 62.8935 4.45323 62.9264 4.51824V4.42072Z" fill="#777777"/>
<path d="M63.0243 10.564C61.512 10.564 60.2627 11.7666 60.2627 13.2944C60.2627 14.8221 61.4791 16.0248 63.0243 16.0248C64.5367 16.0248 65.786 14.8221 65.786 13.2944C65.786 11.7666 64.5367 10.564 63.0243 10.564ZM63.2216 12.8393L63.1887 12.8718L63.1558 10.954C63.6819 10.9865 64.175 11.1816 64.6024 11.5716L63.2216 12.8393ZM63.1887 13.6844V13.6519L64.5695 14.9846C64.175 15.3422 63.6819 15.5372 63.123 15.5372L63.1887 13.6844ZM65.3586 13.1643L63.4189 13.1318L64.7668 11.7666C65.1613 12.1567 65.3586 12.6443 65.3586 13.1643ZM64.7339 14.7896L63.4189 13.4244L65.3586 13.3919C65.3257 13.7819 65.1942 14.2045 64.9641 14.562C64.8983 14.6271 64.8326 14.7246 64.7339 14.7896ZM62.6627 13.0993L60.723 13.1318C60.723 12.8393 60.7887 12.6118 60.8874 12.3517C60.9531 12.1242 61.1175 11.8967 61.2819 11.7016L62.5641 13.0018L62.6627 13.0993ZM62.86 13.6519L62.8928 15.5697C62.3668 15.5372 61.8737 15.3422 61.4463 14.9521L62.86 13.6519ZM62.8928 12.8718V12.9043L61.512 11.5716C61.9065 11.2141 62.3997 11.019 62.9586 11.019L62.8928 12.8718ZM62.6627 13.4244L61.3147 14.7896C60.9531 14.3995 60.7558 13.912 60.6901 13.3594L62.6627 13.4244Z" fill="#777777"/>
<path d="M76.0764 8.38574C75.0572 8.38574 74.1038 8.7758 73.3805 9.52341C72.6572 10.2385 72.2627 11.1812 72.2627 12.1888C72.2627 13.1639 72.6243 14.1066 73.3147 14.8217C73.3476 14.8542 73.3805 14.8867 73.4463 14.9517L73.4791 14.9842C74.2024 15.6343 75.123 15.9919 76.1093 15.9919C78.2463 15.9919 79.9558 14.3016 79.9558 12.1888C79.923 10.076 78.2134 8.38574 76.0764 8.38574ZM78.4106 9.68593L76.3065 11.7012L76.2736 11.7337V11.7012L76.2408 8.7758C77.0627 8.84081 77.8189 9.16586 78.4106 9.68593ZM76.2408 12.7089C76.2408 12.7089 76.2408 12.6764 76.2736 12.7089L78.3778 14.7242C77.7531 15.2443 77.0298 15.5693 76.2079 15.6018C76.2408 15.6018 76.2408 12.7089 76.2408 12.7089ZM76.5695 12.0263L78.6079 9.91347C79.1339 10.5311 79.4627 11.2787 79.4956 12.0588L76.5695 12.0263ZM76.5695 12.4488L79.5285 12.4163C79.4956 13.229 79.1668 13.9441 78.6408 14.5617L76.5695 12.4488ZM75.912 11.7012C75.912 11.7012 75.912 11.7662 75.8791 11.7337L73.775 9.71844C74.3997 9.16586 75.123 8.87332 75.9449 8.84081L75.912 11.7012ZM75.8134 12.6764C75.8134 12.6764 75.8463 12.6764 75.8463 12.7089L75.8791 15.6018C75.0901 15.5693 74.3339 15.2443 73.7093 14.7242L75.8134 12.6764ZM75.5175 11.9613L75.5504 11.9938C75.5832 12.0263 75.5175 12.0263 75.5175 12.0263L72.5915 12.0588C72.6243 11.2462 72.9202 10.4661 73.4791 9.91347L75.5175 11.9613ZM72.6572 12.3513L75.5832 12.3838C75.6161 12.3838 75.6161 12.3838 75.6161 12.4163V12.4488L73.5778 14.5291C73.0517 13.9766 72.723 13.1965 72.6901 12.4163V12.3513H72.6572Z" fill="#777777"/>
</svg>
