<svg width="120" height="75" viewBox="0 0 120 75" fill="none" xmlns="http://www.w3.org/2000/svg">
<path d="M108.701 56.7486L108.477 56.8224C107.606 54.9504 106.36 53.4601 104.74 52.3515C103.145 51.2436 101.14 50.6896 98.7236 50.6896C97.3781 50.6896 96.0949 50.9729 94.8739 51.5395C93.6529 52.0808 92.5816 52.8566 91.66 53.8667C90.7625 54.8516 90.04 56.0463 89.4924 57.4508C88.9441 58.854 88.67 60.4055 88.67 62.1053C88.67 63.8044 88.9441 65.3559 89.4924 66.7598C90.0407 68.1636 90.7632 69.3706 91.66 70.3808C92.5816 71.3657 93.6526 72.1291 94.8729 72.6711C96.0946 73.2131 97.3781 73.4841 98.7236 73.4841C101.115 73.4841 103.058 73.1146 104.553 72.3758C106.073 71.6117 107.356 70.4539 108.403 68.9025L108.627 68.9763L108.552 71.3404C107.979 71.9316 107.319 72.4613 106.571 72.9295C105.825 73.373 105.015 73.7551 104.142 74.0756C103.295 74.3702 102.411 74.5917 101.49 74.74C100.567 74.9122 99.6452 74.9983 98.7236 74.9983C96.805 74.9983 94.9738 74.6907 93.2301 74.0756C91.4857 73.4591 89.9532 72.5969 88.6327 71.489C87.3121 70.3558 86.2657 69.0012 85.4934 67.4251C84.7211 65.8244 84.335 64.0511 84.335 62.1053C84.335 60.1595 84.7214 58.3982 85.4944 56.8214C86.266 55.2207 87.3121 53.8541 88.6327 52.7216C89.9532 51.5884 91.4857 50.7262 93.2301 50.135C94.9738 49.5199 96.8046 49.2123 98.7226 49.2123C99.6449 49.2123 100.567 49.2858 101.49 49.4328C102.411 49.5811 103.295 49.8151 104.142 50.135C105.014 50.4309 105.824 50.813 106.571 51.2812C107.319 51.7241 107.979 52.2411 108.552 52.8323L108.701 56.7486Z" fill="#777777"/>
<path d="M26.3474 63.8051C26.0736 63.9281 25.8122 64.0881 25.5633 64.2849C25.3144 64.4818 25.1899 64.7527 25.1899 65.0979V69.6426C23.9932 71.3417 22.4604 72.6594 20.5915 73.5958C18.7234 74.5315 16.6557 74.9993 14.3886 74.9993C12.47 74.9993 10.6385 74.6914 8.89415 74.0756C7.15043 73.4598 5.61829 72.5976 4.29772 71.489C2.97716 70.3558 1.93073 69.0015 1.15844 67.4261C0.386147 65.8247 0 64.0511 0 62.1053C0 60.1601 0.386474 58.3991 1.15942 56.8224C1.93106 55.2217 2.97716 53.8548 4.29772 52.7216C5.61829 51.5884 7.15043 50.7265 8.89415 50.136C10.6385 49.5202 12.47 49.2123 14.3886 49.2123C15.3103 49.2123 16.2319 49.2861 17.1536 49.4337C18.0759 49.5814 18.9602 49.8155 19.8065 50.136C20.679 50.4313 21.4889 50.813 22.2363 51.2812C22.9838 51.7247 23.644 52.2418 24.2172 52.8323L24.3675 56.7486L24.1425 56.8224C23.2713 54.951 22.0258 53.4611 20.4058 52.3525C18.8108 51.2439 16.8051 50.6896 14.3886 50.6896C13.0432 50.6896 11.76 50.9729 10.539 51.5395C9.31861 52.0815 8.24762 52.8572 7.32598 53.8667C6.42857 54.8523 5.70573 56.047 5.15747 57.4508C4.6092 58.8547 4.33506 60.4062 4.33506 62.1053C4.33506 63.7798 4.59708 65.319 5.12111 66.7229C5.66872 68.1274 6.39091 69.3344 7.28766 70.3439C8.20996 71.3288 9.28128 72.1045 10.5016 72.6711C11.7226 73.2131 13.0183 73.4841 14.3886 73.4841C16.98 73.4841 19.1973 72.9916 21.0406 72.0067V65.0979C21.0406 64.7534 20.9037 64.4824 20.6299 64.2849C20.3809 64.0881 20.132 63.9278 19.8831 63.8041L19.9165 63.6195C20.041 63.6422 20.2653 63.6668 20.5896 63.6934C20.9138 63.716 21.2502 63.7406 21.5987 63.7672H24.8126C25.112 63.7445 25.3986 63.7199 25.6724 63.6934C25.9462 63.6707 26.1578 63.6461 26.3071 63.6195L26.3474 63.8051Z" fill="#777777"/>
<path d="M53.4165 49.988C53.1676 50.111 52.9187 50.2713 52.6698 50.4688C52.4202 50.6657 52.283 51.0351 52.2581 51.577C52.2352 52.1682 52.2103 52.9194 52.1834 53.8305C52.1834 54.7176 52.1723 55.7277 52.15 56.8609C52.15 57.9935 52.1386 59.2247 52.1156 60.5548V64.6925C52.0927 66.2932 51.8932 67.6601 51.5173 68.7933C51.1439 69.9265 50.6457 70.8745 50.0228 71.6373C49.4247 72.4014 48.752 73.0049 48.0046 73.4478C47.2821 73.8914 46.5596 74.2239 45.8371 74.4453C45.1394 74.6914 44.4792 74.8393 43.8562 74.8892C43.2333 74.963 42.7472 74.9999 42.3981 74.9999C40.978 74.9999 39.6076 74.8154 38.2871 74.4463C36.9665 74.1012 35.8081 73.5346 34.8117 72.7465C33.8154 71.9578 33.0182 70.9357 32.4202 69.6801C31.8221 68.4239 31.5231 66.8967 31.5231 65.0985V60.9239V57.0814C31.5231 55.8997 31.5116 54.8409 31.4887 53.9053C31.4887 52.9443 31.4773 52.1682 31.4543 51.577C31.4321 51.0351 31.2952 50.666 31.0436 50.4698C30.7947 50.2723 30.5458 50.1117 30.2969 49.988L30.3303 49.8035C30.4547 49.8261 30.6545 49.8507 30.9296 49.8773C31.2283 49.8999 31.527 49.9245 31.8257 49.9511C32.15 49.9511 32.4611 49.9624 32.7592 49.9851H34.1053C34.4046 49.9624 34.7161 49.9511 35.0397 49.9511C35.3639 49.9284 35.663 49.9038 35.9368 49.8773C36.2355 49.8546 36.4471 49.83 36.5715 49.8035L36.6059 49.988C36.3321 50.111 36.0704 50.2713 35.8208 50.4688C35.5968 50.6657 35.4724 51.0351 35.4475 51.577C35.4245 52.1682 35.3996 52.944 35.3728 53.9043V65.0985C35.3728 67.7832 36.0082 69.7659 37.279 71.0468C38.5497 72.3276 40.4307 72.968 42.9218 72.968C43.6443 72.968 44.4664 72.8815 45.388 72.7086C46.3103 72.5118 47.1701 72.1178 47.9673 71.5266C48.7893 70.9354 49.4745 70.0981 50.0228 69.0148C50.5959 67.9308 50.8825 66.4901 50.8825 64.6925C50.8825 62.7467 50.8711 61.0841 50.8481 59.7049C50.8481 58.301 50.8367 57.1063 50.8137 56.1208C50.8137 55.1106 50.8023 54.2488 50.7794 53.5352C50.7571 52.821 50.7322 52.1682 50.7047 51.577C50.6824 51.0351 50.5455 50.6657 50.294 50.4688C50.0451 50.272 49.7961 50.1117 49.5472 49.988L49.5806 49.8035C49.8551 49.8527 50.1666 49.9022 50.515 49.9521C50.8642 49.9741 51.1884 49.9851 51.4878 49.9851C51.7609 49.9851 52.0721 49.9741 52.4212 49.9521C52.7946 49.9029 53.1185 49.8533 53.393 49.8035L53.4165 49.988Z" fill="#777777"/>
<path d="M80.5355 56.7485L80.3115 56.8223C79.439 54.9503 78.1931 53.46 76.5738 52.3514C74.9794 51.2435 72.9737 50.6895 70.5566 50.6895C69.2118 50.6895 67.9289 50.9728 66.7079 51.5394C65.4869 52.0807 64.4156 52.8565 63.4939 53.8666C62.5965 54.8515 61.874 56.0462 61.3264 57.4507C60.7781 58.8539 60.504 60.4054 60.504 62.1052C60.504 63.8043 60.7781 65.3558 61.3264 66.7596C61.874 68.1635 62.5965 69.3705 63.4939 70.3806C64.4156 71.3655 65.4866 72.129 66.7069 72.671C67.9286 73.2129 69.2118 73.4839 70.5566 73.4839C72.9488 73.4839 74.8923 73.1145 76.3871 72.3757C77.9068 71.6116 79.19 70.4538 80.2368 68.9023L80.4608 68.9761L80.3861 71.3403C79.813 71.9315 79.1527 72.4612 78.4053 72.9293C77.6586 73.3729 76.8489 73.7549 75.9764 74.0755C75.1294 74.3701 74.2451 74.5915 73.3235 74.7398C72.4012 74.9121 71.4792 74.9982 70.5576 74.9982C68.6383 74.9982 66.8068 74.6906 65.0631 74.0755C63.3194 73.459 61.7872 72.5968 60.4667 71.4889C59.1461 70.3557 58.0997 69.0011 57.3274 67.425C56.5544 65.8243 56.168 64.051 56.168 62.1052C56.168 60.1593 56.5544 58.3981 57.3274 56.8213C58.1003 55.2206 59.1468 53.854 60.4667 52.7215C61.7872 51.5883 63.3194 50.7261 65.0631 50.1349C66.8075 49.5197 68.639 49.2122 70.5576 49.2122C71.4792 49.2122 72.4009 49.2857 73.3225 49.4326C74.2448 49.5809 75.1291 49.815 75.9754 50.1349C76.8479 50.4308 77.6579 50.8129 78.4053 51.281C79.1527 51.7239 79.813 52.241 80.3861 52.8322L80.5355 56.7485Z" fill="#777777"/>
<path d="M119.965 74.3697C119.841 74.3477 119.629 74.3234 119.33 74.2969C119.057 74.2969 118.757 74.2855 118.433 74.2629C118.109 74.2629 117.798 74.2519 117.499 74.2298H115.258C114.958 74.2519 114.659 74.2761 114.36 74.3027C114.086 74.3253 113.874 74.35 113.725 74.3765L113.69 74.2289C113.939 74.1058 114.188 73.9456 114.437 73.7481C114.687 73.5512 114.824 73.1818 114.849 72.6398C114.872 72.0486 114.883 71.4328 114.883 70.7924C114.906 70.152 114.918 69.4255 114.918 68.6128V65.8417V62.1109V58.3792V55.5722C114.918 54.7589 114.906 54.0443 114.883 53.4285C114.883 52.7881 114.872 52.1726 114.849 51.5821C114.826 51.0401 114.689 50.6706 114.438 50.4738C114.189 50.2517 113.94 50.0791 113.691 49.9561L113.725 49.8085C113.874 49.8577 114.086 49.8946 114.36 49.9192C114.659 49.9192 114.958 49.9305 115.257 49.9532C115.581 49.9759 115.892 49.9872 116.191 49.9872H117.499C117.798 49.9645 118.109 49.9532 118.432 49.9532C118.757 49.9305 119.057 49.9059 119.33 49.8794C119.629 49.8567 119.841 49.8321 119.965 49.8055L119.999 49.9542C119.726 50.0772 119.464 50.2494 119.214 50.4709C118.99 50.6677 118.866 51.0368 118.841 51.5782C118.818 52.17 118.793 52.7861 118.766 53.4266V70.7905C118.789 71.4302 118.814 72.0457 118.841 72.6369C118.863 73.1789 118.988 73.5483 119.214 73.7451C119.463 73.942 119.725 74.1023 119.999 74.2259L119.965 74.3697Z" fill="#777777"/>
<path fill-rule="evenodd" clip-rule="evenodd" d="M87.0741 18.4546C87.0741 28.6434 78.6891 36.9092 68.3532 36.9092C65.3756 36.9092 62.5693 36.2349 60.0368 34.9862C57.538 36.2011 54.6974 36.9092 51.7546 36.9092C41.4182 36.9092 33.0332 28.6434 33.0332 18.4546C33.0332 8.26567 41.4182 -0.00012207 51.7541 -0.00012207C54.7317 -0.00012207 57.538 0.674699 60.0363 1.88918C62.535 0.674699 65.3756 -0.00012207 68.3532 -0.00012207C78.6891 -0.00012207 87.0741 8.26567 87.0741 18.4546ZM83.3781 18.4546C83.3781 10.2901 76.6354 3.64381 68.3532 3.64381C66.779 3.64381 65.239 3.87985 63.8356 4.31863C66.7104 6.68 68.7983 9.85135 69.8247 13.4953H65.9573C64.871 10.4534 62.8034 7.84616 60.071 6.07276C57.3671 7.8269 55.3134 10.4253 54.2186 13.4953H50.3512C51.364 9.90191 53.4509 6.69243 56.3403 4.28483C54.8657 3.83676 53.3314 3.60929 51.7883 3.61001C43.5062 3.61001 36.764 10.2563 36.764 18.4208C36.764 26.5852 43.5062 33.232 51.7883 33.232C53.3626 33.232 54.8683 32.996 56.2717 32.5572C52.5415 29.4872 50.1117 24.9662 49.7352 19.9056H58.6334V23.5152L54.2866 23.5828C55.4163 26.5519 57.4357 29.0489 60.071 30.7693C62.7059 29.0484 64.7253 26.5519 65.855 23.5828L61.5082 23.5152V19.9056H70.4069C69.996 24.9662 67.5321 29.4534 63.8013 32.5234C65.239 32.9622 66.779 33.232 68.3532 33.232C76.6697 33.2658 83.3781 26.6528 83.3781 18.4546Z" fill="#777777"/>
</svg>
