<svg width="120" height="43" viewBox="0 0 120 43" fill="none" xmlns="http://www.w3.org/2000/svg">
<path fill-rule="evenodd" clip-rule="evenodd" d="M15.3714 1.90678C7.56271 11.037 0.0756853 22.3594 0.000609527 30.8224C-0.0286305 34.0066 0.9924 36.7865 3.44145 38.892C6.96606 41.9244 10.8494 42.9937 14.7139 43C20.3612 43.0078 25.9689 40.7394 30.3597 38.9903C37.7542 36.0461 119.494 0.704517 119.494 0.704517C120.283 0.311107 120.135 -0.179078 119.148 0.0656223C118.75 0.164761 30.1613 24.0675 30.1613 24.0675C28.4833 24.54 26.7494 24.7872 25.0056 24.8024C18.1974 24.8426 12.1392 21.08 12.1882 13.1512C12.2071 10.0488 13.161 6.30746 15.3714 1.90678Z" fill="#777777"/>
</svg>
