<svg width="120" height="50" viewBox="0 0 120 50" fill="none" xmlns="http://www.w3.org/2000/svg">
<path d="M113.845 48.5204L96.0662 0.0319963L96.0539 0H95.703L92.0419 9.96425L85.3768 28.1042L85.3612 28.0899C83.0511 26.0708 79.7921 24.8086 75.6876 24.3386L74.4357 24.2106L75.6776 24.0528C82.4463 22.8479 86.9963 18.6133 86.9963 13.5115C86.9963 6.51522 80.3535 1.63185 70.8381 1.63185H51.0398V1.98602H56.7927V38.1369L42.8209 0.0319963L42.8087 0H42.4578L38.7967 9.96425L24.6756 48.3957L24.5888 48.4057C24.3474 48.4351 24.1087 48.4586 23.8726 48.4763C23.5173 48.5039 23.1642 48.5204 22.81 48.5204H8.54191L35.6635 1.98601L35.8651 1.63625H2.69434V16.0315H3.04631C3.10868 9.01979 7.23094 1.98601 16.3387 1.98601H27.3265L0 48.8691H36.8141V35.0773H36.4621C36.4142 41.1887 32.9168 46.9934 25.3116 48.3042L25.0699 48.345L30.8618 32.575H47.0869L52.9333 48.5204H47.166V48.8691H69.8022V48.5204H64.0103V24.4676H70.6933C77.4943 24.4676 81.3949 27.4775 81.3949 32.7228V36.9894C81.3949 37.4595 81.4272 38.1468 81.4628 38.7217V38.7426L77.8707 48.5182H73.1782V48.8669H82.8919V48.5182H78.2494L81.5207 39.6165C81.5274 39.7025 81.5308 39.7544 81.5308 39.7544L81.621 40.5565L81.7079 41.0872C82.2536 44.3697 83.5212 46.7827 85.4737 48.2589L85.7544 48.4608C87.238 49.4825 89.0814 50 91.2366 50C94.0913 50 95.9949 49.295 97.5665 47.6355L97.3604 47.4436C95.9124 48.7676 94.6973 49.3038 93.1747 49.3038C90.5806 49.3038 89.2228 46.1869 89.2228 43.113V37.1351C89.2366 35.6517 89.0022 34.1765 88.5289 32.7692L88.4643 32.5838V32.5772H100.332L106.179 48.5226H100.411V48.8713H120V48.5226L113.845 48.5204ZM30.991 32.2263L38.9838 10.474L46.9588 32.2263H30.991ZM64.0137 24.1179V1.98601H69.115C75.9293 1.98601 79.527 5.99885 79.527 13.5865C79.527 21.6563 77.462 24.1179 70.6933 24.1179H64.0137ZM88.3262 32.2263L88.2917 32.1403C87.7643 30.8679 86.9965 29.707 86.0295 28.7199L85.6954 28.3889L85.6597 28.3558L92.2246 10.474L100.2 32.2263H88.3262Z" fill="#777777"/>
</svg>
