<svg width="50" height="50" viewBox="0 0 50 50" fill="none" xmlns="http://www.w3.org/2000/svg">
<g clip-path="url(#clip0_408_199)">
<path d="M25.0807 45.2432C13.9136 45.2432 4.82812 36.158 4.82812 24.9904C4.82812 13.8233 13.9136 4.73828 25.0807 4.73828C36.2479 4.73828 45.3329 13.8232 45.3329 24.9904C45.3329 36.158 36.2479 45.2431 25.0807 45.2431V45.2432ZM25.0807 6.3873C14.8226 6.3873 6.47754 14.7327 6.47754 24.9904C6.47754 35.2485 14.8226 43.5936 25.0807 43.5936C35.3385 43.5936 43.6838 35.2485 43.6838 24.9904C43.6838 14.7327 35.3384 6.3873 25.0807 6.3873Z" fill="#FFD151"/>
<path d="M18.7713 9.33877C18.7713 14.4962 14.5899 18.6775 9.43242 18.6775C4.27471 18.6775 0.09375 14.4961 0.09375 9.33867C0.09375 4.18125 4.27471 0 9.43252 0C14.5899 0 18.7713 4.18125 18.7713 9.33877Z" fill="#64E8FF"/>
<path d="M9.43604 0C8.89316 0 8.36143 0.046875 7.84375 0.135742C12.2429 0.891504 15.5906 4.72373 15.5906 9.33877C15.5906 13.9538 12.243 17.786 7.84375 18.5417C8.36143 18.6306 8.89316 18.6774 9.43604 18.6774C14.5935 18.6774 18.7748 14.4962 18.7748 9.33877C18.7748 4.18135 14.5935 0 9.43604 0Z" fill="#0FD9FF"/>
<path d="M50.0756 9.33877C50.0756 14.4962 45.8946 18.6775 40.7367 18.6775C35.5793 18.6775 31.3984 14.4962 31.3984 9.33867C31.3984 4.18115 35.5793 0 40.7368 0C45.8946 0 50.0756 4.18125 50.0756 9.33877Z" fill="#6193FF"/>
<path d="M50.0752 9.07129C49.9275 3.91591 45.6283 -0.143753 40.4731 0.00390348C39.9896 0.0176605 39.5078 0.0686578 39.032 0.156443C43.2671 0.940622 46.5294 4.59209 46.6575 9.07138C46.7915 13.7355 43.4811 17.6986 39.0312 18.5207C39.6828 18.6414 40.3453 18.6927 41.0076 18.6737C46.1632 18.5257 50.2228 14.2269 50.0752 9.07129Z" fill="#407BFF"/>
<path d="M18.7713 40.661C18.7713 45.8189 14.5899 49.9998 9.43242 49.9998C4.27471 49.9998 0.09375 45.8188 0.09375 40.661C0.09375 35.5036 4.27471 31.3223 9.43252 31.3223C14.5899 31.3223 18.7713 35.5036 18.7713 40.6611V40.661Z" fill="#FF6969"/>
<path d="M9.43164 31.3223C8.72372 31.3219 8.01805 31.4018 7.32812 31.5604C11.4729 32.5145 14.5635 36.2269 14.5635 40.661C14.5635 45.0956 11.4729 48.8077 7.32812 49.7617C8.01808 49.9203 8.72379 50.0002 9.43174 49.9998C14.5892 49.9998 18.7705 45.8188 18.7705 40.661C18.7705 35.5036 14.5892 31.3223 9.43164 31.3223Z" fill="#FF4848"/>
<path d="M50.0756 40.661C50.0756 45.8189 45.8946 49.9998 40.7367 49.9998C35.5793 49.9998 31.3984 45.8188 31.3984 40.661C31.3984 35.5036 35.5793 31.3223 40.7368 31.3223C45.8946 31.3223 50.0756 35.5036 50.0756 40.6611V40.661Z" fill="#FF95C2"/>
<path d="M40.7342 31.3223C40.1018 31.322 39.4711 31.3856 38.8516 31.5122C43.1068 32.3831 46.3078 36.1482 46.3078 40.661C46.3078 45.1738 43.1068 48.939 38.8516 49.8099C39.4711 49.9364 40.1018 50.0001 40.7342 49.9998C45.8916 49.9998 50.0726 45.8188 50.0726 40.661C50.0726 35.5036 45.8916 31.3223 40.7342 31.3223Z" fill="#FF758E"/>
<path d="M13.8487 5.7041C13.4921 5.91918 13.11 6.08873 12.7112 6.20879C11.9681 5.3543 10.6734 5.26426 9.81895 6.00742C9.59422 6.2029 9.41477 6.44499 9.29309 6.71685C9.17141 6.98871 9.11042 7.28382 9.11436 7.58164V8.03906C8.35053 8.05898 7.5927 7.89915 6.90197 7.57244C6.21124 7.24574 5.60695 6.76131 5.1378 6.1582C5.07334 6.07539 4.94248 6.09639 4.90821 6.19521C4.59727 7.08516 3.74776 10.3437 7.28399 11.9153C6.49324 12.4519 5.57276 12.766 4.61895 12.8247C4.48018 12.8331 4.44317 13.0204 4.56944 13.0788C8.58662 14.9343 13.233 12.6237 13.233 7.56768C13.2325 7.44029 13.2202 7.31323 13.1964 7.18809C13.5738 6.81551 13.8627 6.36289 14.0417 5.86367C14.0833 5.74736 13.9548 5.64053 13.8486 5.7042L13.8487 5.7041ZM40.0813 15.2576C39.8625 15.2576 39.6528 15.1707 39.4981 15.016C39.3435 14.8614 39.2566 14.6516 39.2565 14.4329V6.31377C39.2565 4.71807 40.5547 3.41992 42.1504 3.41992H43.127C43.3457 3.41995 43.5554 3.50684 43.7101 3.6615C43.8647 3.81616 43.9516 4.02591 43.9517 4.24463C43.9517 4.35291 43.9303 4.46013 43.8889 4.56016C43.8474 4.66019 43.7866 4.75107 43.7101 4.82762C43.6335 4.90417 43.5426 4.96488 43.4425 5.00628C43.3425 5.04769 43.2352 5.06898 43.127 5.06895H42.1504C41.4642 5.06895 40.9057 5.62744 40.9057 6.31367V14.4329C40.9057 14.8884 40.5364 15.2576 40.0813 15.2576Z" fill="white"/>
<path d="M41.998 10.0049H38.2547C38.0382 10.0016 37.8316 9.9132 37.6797 9.7589C37.5277 9.6046 37.4426 9.39673 37.4426 9.18018C37.4426 8.96362 37.5277 8.75575 37.6797 8.60145C37.8316 8.44715 38.0382 8.3588 38.2547 8.35547H41.998C42.2146 8.3588 42.4211 8.44715 42.573 8.60145C42.725 8.75575 42.8102 8.96362 42.8102 9.18018C42.8102 9.39673 42.725 9.6046 42.573 9.7589C42.4211 9.9132 42.2146 10.0016 41.998 10.0049ZM7.4376 40.5599V37.5937C7.4376 37.3751 7.67373 37.2389 7.86299 37.348L10.4307 38.8312L12.9987 40.3144C13.1875 40.4237 13.1875 40.6966 12.9987 40.8061L10.4307 42.2892L7.86289 43.7724C7.67363 43.8814 7.4375 43.7449 7.4375 43.5267L7.4376 40.5599ZM44.0152 46.0764H37.4589C36.2813 46.0764 35.3231 45.1181 35.3231 43.9404V37.3842C35.3231 36.2062 36.2813 35.2483 37.4589 35.2483H44.0152C45.1929 35.2483 46.1511 36.2062 46.1511 37.3841V43.9404C46.1511 45.1181 45.1929 46.0764 44.0152 46.0764ZM37.4589 36.8974C37.3298 36.8975 37.2061 36.9488 37.1148 37.0401C37.0235 37.1313 36.9722 37.2551 36.9722 37.3842V43.9404C36.9723 44.0694 37.0237 44.1931 37.1149 44.2843C37.2062 44.3754 37.3299 44.4267 37.4589 44.4268H44.0152C44.1442 44.4266 44.2679 44.3753 44.3591 44.2842C44.4503 44.193 44.5017 44.0694 44.502 43.9404V37.3842C44.5018 37.2551 44.4505 37.1314 44.3593 37.0401C44.268 36.9489 44.1443 36.8975 44.0152 36.8974H37.4589Z" fill="white"/>
<path d="M40.7412 43.0121C39.4449 43.0121 38.3906 41.9574 38.3906 40.6611C38.3906 39.3649 39.4449 38.3105 40.7412 38.3105C42.0374 38.3105 43.0922 39.3649 43.0922 40.6611C43.0922 41.9574 42.0375 43.0121 40.7412 43.0121ZM40.7412 39.9597C40.3544 39.9597 40.0397 40.2743 40.0397 40.6611C40.0397 41.0479 40.3544 41.3627 40.7412 41.3627C40.9272 41.3625 41.1055 41.2885 41.2371 41.157C41.3686 41.0255 41.4425 40.8471 41.4427 40.6611C41.4431 40.2744 41.1284 39.9597 40.7412 39.9597Z" fill="white"/>
<g clip-path="url(#clip1_408_199)">
<path d="M31.9039 18.0985C33.3686 19.5628 33.3686 21.9371 31.9039 23.4017L28.814 26.492C28.398 26.908 27.9088 27.2055 27.3877 27.3852C26.5935 27.6584 25.7308 27.6584 24.9367 27.3852C24.4155 27.2055 23.9264 26.908 23.5104 26.492C23.0948 26.076 22.7969 25.5869 22.6172 25.0658L22.683 25C22.6172 25.0658 23.8419 23.8172 23.8419 23.8172L25.0025 25C25.6418 25.6397 26.6823 25.6397 27.322 25L27.3877 24.9343L30.4123 21.9097C31.0516 21.2704 31.0516 20.2298 30.4123 19.5902C29.7726 18.9509 28.7321 18.9509 28.0928 19.5902L25.0682 22.6148L23.8427 23.1131L22.6172 22.6147C22.7969 22.0939 23.0944 21.6044 23.5104 21.1884L26.6007 18.0985C28.0653 16.6338 30.4397 16.6338 31.9039 18.0985Z" fill="#A3E1FF"/>
<path d="M25.0658 22.6151C25.5866 22.7947 26.0758 23.0926 26.4918 23.5086C26.9078 23.9242 27.2056 24.4137 27.3853 24.9345L27.3196 25.0003C26.6799 25.6399 25.6394 25.6399 25.0001 25.0003C24.3604 24.361 23.3199 24.361 22.6806 25.0003L22.6148 25.066L19.5902 28.0906C18.9506 28.7302 18.9506 29.7708 19.5902 30.4101C20.2296 31.0497 21.2701 31.0497 21.9097 30.4101L24.9343 27.3855C25.7285 27.6587 26.5911 27.6587 27.3853 27.3855C27.2056 27.9067 26.9078 28.3958 26.4918 28.8118L23.4018 31.9021C21.9372 33.3664 19.5628 33.3664 18.0982 31.9021C16.6339 30.4375 16.6339 28.0631 18.0982 26.5985L21.1885 23.5086C21.6045 23.0926 22.0937 22.7947 22.6148 22.615C23.4075 22.3419 24.2732 22.3419 25.0658 22.6151Z" fill="#4AAEE2"/>
</g>
</g>
<defs>
<clipPath id="clip0_408_199">
<rect width="50" height="50" fill="white"/>
</clipPath>
<clipPath id="clip1_408_199">
<rect width="16" height="16" fill="white" transform="translate(17 17)"/>
</clipPath>
</defs>
</svg>
