<svg width="50" height="50" viewBox="0 0 50 50" fill="none" xmlns="http://www.w3.org/2000/svg">
<g clip-path="url(#clip0_408_239)">
<path fill-rule="evenodd" clip-rule="evenodd" d="M25 50C38.8071 50 50 38.8071 50 25C50 11.1929 38.8071 0 25 0C11.1929 0 0 11.1929 0 25C0 38.8071 11.1929 50 25 50ZM20.7031 23.2292V42.1875H25.519V23.2292H31.25V19.3555H25.519V16.2109C25.519 15.1172 25.7598 14.3576 26.2414 13.9323C26.7551 13.4766 27.5899 13.2487 28.7457 13.2487H30.6721V9.375H28.0233C26.4501 9.375 25.1177 9.60286 24.0261 10.0586C22.9666 10.5143 22.1479 11.2435 21.57 12.2461C20.9921 13.2487 20.7031 14.5399 20.7031 16.1198V19.3555H17.1875V23.2292H20.7031Z" fill="#E56353"/>
</g>
<defs>
<clipPath id="clip0_408_239">
<rect width="50" height="50" fill="white"/>
</clipPath>
</defs>
</svg>
