<svg width="50" height="50" viewBox="0 0 50 50" fill="none" xmlns="http://www.w3.org/2000/svg">
<g clip-path="url(#clip0_408_125)">
<path fill-rule="evenodd" clip-rule="evenodd" d="M0.0502067 18.4896L13.9216 2.44886C13.9567 2.40924 14.0059 2.38499 14.0587 2.38134C14.1115 2.37769 14.1636 2.39492 14.2038 2.42933L34.7516 20.1971C34.7912 20.2328 34.8154 20.2825 34.819 20.3357C34.8227 20.3889 34.8055 20.4415 34.7711 20.4823L20.9001 36.5227C20.8645 36.5625 20.8148 36.5868 20.7616 36.5906C20.7083 36.5943 20.6557 36.5771 20.615 36.5427L0.0701286 18.7746C0.0498926 18.7574 0.0333081 18.7362 0.0213465 18.7124C0.00938489 18.6887 0.00228674 18.6628 0.00046782 18.6362C-0.0013511 18.6097 0.00214578 18.583 0.0107536 18.5578C0.0193615 18.5327 0.0329072 18.5095 0.0505974 18.4896H0.0502067Z" fill="#006694"/>
<path fill-rule="evenodd" clip-rule="evenodd" d="M9.25803 10.9389L18.9418 6.52344L34.7546 20.1979C34.7942 20.2336 34.8184 20.2833 34.8221 20.3365C34.8257 20.3897 34.8085 20.4422 34.7741 20.483L20.9032 36.5234C20.8676 36.5632 20.8179 36.5876 20.7646 36.5913C20.7114 36.5951 20.6588 36.5779 20.618 36.5435L19.6346 35.6911L8.84758 12.0364C8.75686 11.8364 8.74908 11.6086 8.82596 11.4029C8.90283 11.1972 9.05809 11.0303 9.25774 10.9389H9.25803Z" fill="#005C85"/>
<path fill-rule="evenodd" clip-rule="evenodd" d="M9.51604 11.508L28.8122 2.71085C28.8607 2.68923 28.9157 2.68759 28.9653 2.70628C29.0149 2.72496 29.0552 2.76246 29.0774 2.81065L40.3461 27.5261C40.3575 27.55 40.3641 27.576 40.3654 27.6024C40.3667 27.6289 40.3627 27.6554 40.3537 27.6803C40.3447 27.7052 40.3308 27.7281 40.3129 27.7477C40.2949 27.7672 40.2733 27.783 40.2492 27.794L20.953 36.5908C20.9041 36.6122 20.8488 36.6137 20.7988 36.5951C20.7488 36.5765 20.708 36.5392 20.685 36.491L9.41623 11.7764C9.39437 11.7275 9.39258 11.6721 9.41125 11.6219C9.42993 11.5718 9.46756 11.531 9.51604 11.5084V11.508Z" fill="#60B7FF"/>
<path fill-rule="evenodd" clip-rule="evenodd" d="M20.9673 8.48047H31.6606L40.3434 27.5259C40.3548 27.5498 40.3613 27.5758 40.3626 27.6022C40.3639 27.6287 40.3599 27.6552 40.3509 27.6801C40.3419 27.705 40.328 27.7279 40.3101 27.7475C40.2922 27.767 40.2706 27.7827 40.2465 27.7938L20.9502 36.5906C20.9013 36.612 20.846 36.6135 20.796 36.5949C20.746 36.5763 20.7052 36.539 20.6822 36.4908L20.1406 35.2994V9.30996C20.1404 9.2012 20.1616 9.09347 20.203 8.99291C20.2445 8.89235 20.3053 8.80094 20.3821 8.72391C20.4588 8.64687 20.55 8.58572 20.6505 8.54395C20.7509 8.50218 20.8585 8.48061 20.9673 8.48047Z" fill="#56A5E6"/>
<path fill-rule="evenodd" clip-rule="evenodd" d="M20.9651 9.10938H36.7579L42.3737 14.7252V36.4732C42.3735 36.5269 42.3522 36.5782 42.3143 36.6161C42.2764 36.654 42.225 36.6755 42.1714 36.6757H20.9651C20.9387 36.6755 20.9126 36.6701 20.8883 36.6599C20.864 36.6496 20.8419 36.6346 20.8234 36.6158C20.8049 36.597 20.7902 36.5748 20.7803 36.5503C20.7704 36.5258 20.7654 36.4996 20.7656 36.4732V9.31172C20.7654 9.28532 20.7704 9.25914 20.7803 9.23468C20.7902 9.21022 20.8049 9.18795 20.8234 9.16915C20.8419 9.15036 20.864 9.1354 20.8883 9.12514C20.9126 9.11489 20.9387 9.10953 20.9651 9.10938Z" fill="#EAF6FF"/>
<path fill-rule="evenodd" clip-rule="evenodd" d="M36.7578 9.10938V13.4648C36.7585 13.7988 36.8914 14.1188 37.1275 14.3549C37.3636 14.591 37.6837 14.724 38.0176 14.7246H42.373L36.7578 9.10938Z" fill="#BEC7CF"/>
<path fill-rule="evenodd" clip-rule="evenodd" d="M25.8296 28.259H42.4007C43.2406 28.2615 44.0454 28.5963 44.6393 29.1903C45.2333 29.7842 45.5681 30.589 45.5706 31.4289V44.4479C45.5685 45.288 45.2339 46.0931 44.6399 46.6872C44.0459 47.2812 43.2408 47.6159 42.4007 47.618H13.0216C12.1816 47.6154 11.3768 47.2806 10.7829 46.6867C10.1889 46.0927 9.85411 45.2879 9.85156 44.4479V25.089C9.85342 24.3988 10.1286 23.7374 10.6169 23.2496C11.1053 22.7619 11.7669 22.4874 12.4571 22.4863H17.9902C18.9082 22.4863 19.5325 23.0508 20.1881 23.6894L23.6317 27.056C24.2874 27.6974 24.9117 28.259 25.8296 28.259Z" fill="#FFBA57"/>
<path d="M24.2197 14.6466C24.0344 14.6444 23.8574 14.5693 23.7272 14.4374C23.5969 14.3056 23.5238 14.1278 23.5238 13.9424C23.5238 13.7571 23.5969 13.5792 23.7272 13.4474C23.8574 13.3156 24.0344 13.2405 24.2197 13.2383H33.5301C33.7154 13.2405 33.8924 13.3156 34.0227 13.4474C34.1529 13.5792 34.226 13.7571 34.226 13.9424C34.226 14.1278 34.1529 14.3056 34.0227 14.4374C33.8924 14.5693 33.7154 14.6444 33.5301 14.6466H24.2197ZM24.2197 24.92C24.033 24.92 23.8539 24.8458 23.7219 24.7138C23.5898 24.5817 23.5156 24.4027 23.5156 24.2159C23.5156 24.0292 23.5898 23.8501 23.7219 23.718C23.8539 23.586 24.033 23.5118 24.2197 23.5118H38.9235C39.1103 23.5118 39.2894 23.586 39.4214 23.718C39.5535 23.8501 39.6276 24.0292 39.6276 24.2159C39.6276 24.4027 39.5535 24.5817 39.4214 24.7138C39.2894 24.8458 39.1103 24.92 38.9235 24.92H24.2197ZM24.2197 21.4964C24.0344 21.4942 23.8574 21.4191 23.7272 21.2872C23.5969 21.1554 23.5238 20.9776 23.5238 20.7922C23.5238 20.6069 23.5969 20.429 23.7272 20.2972C23.8574 20.1654 24.0344 20.0903 24.2197 20.0881H38.9235C39.0167 20.087 39.1092 20.1044 39.1956 20.1393C39.282 20.1742 39.3606 20.2259 39.4268 20.2914C39.4931 20.3569 39.5457 20.4349 39.5816 20.5208C39.6175 20.6068 39.636 20.6991 39.636 20.7922C39.636 20.8854 39.6175 20.9777 39.5816 21.0636C39.5457 21.1496 39.4931 21.2276 39.4268 21.2931C39.3606 21.3586 39.282 21.4103 39.1956 21.4452C39.1092 21.4801 39.0167 21.4975 38.9235 21.4964H24.2197ZM24.2197 18.0727C24.1273 18.0727 24.0357 18.0544 23.9503 18.0191C23.8649 17.9837 23.7872 17.9318 23.7219 17.8664C23.6565 17.801 23.6046 17.7234 23.5692 17.638C23.5338 17.5526 23.5156 17.461 23.5156 17.3686C23.5156 17.2761 23.5338 17.1845 23.5692 17.0991C23.6046 17.0137 23.6565 16.9361 23.7219 16.8707C23.7872 16.8053 23.8649 16.7534 23.9503 16.718C24.0357 16.6827 24.1273 16.6645 24.2197 16.6645H38.9235C39.016 16.6645 39.1076 16.6827 39.193 16.718C39.2784 16.7534 39.356 16.8053 39.4214 16.8707C39.4868 16.9361 39.5387 17.0137 39.574 17.0991C39.6094 17.1845 39.6276 17.2761 39.6276 17.3686C39.6276 17.461 39.6094 17.5526 39.574 17.638C39.5387 17.7234 39.4868 17.801 39.4214 17.8664C39.356 17.9318 39.2784 17.9837 39.193 18.0191C39.1076 18.0544 39.016 18.0727 38.9235 18.0727H24.2197Z" fill="#BEC7CF"/>
<path d="M14.3213 39.1172C14.1345 39.1172 13.9555 39.043 13.8234 38.911C13.6914 38.7789 13.6172 38.5998 13.6172 38.4131C13.6172 38.2263 13.6914 38.0473 13.8234 37.9152C13.9555 37.7832 14.1345 37.709 14.3213 37.709H21.1886C21.3753 37.709 21.5544 37.7832 21.6864 37.9152C21.8185 38.0473 21.8927 38.2263 21.8927 38.4131C21.8927 38.5998 21.8185 38.7789 21.6864 38.911C21.5544 39.043 21.3753 39.1172 21.1886 39.1172H14.3213ZM14.3213 43.9263C14.1345 43.9263 13.9555 43.8521 13.8234 43.72C13.6914 43.588 13.6172 43.4089 13.6172 43.2222C13.6172 43.0354 13.6914 42.8563 13.8234 42.7243C13.9555 42.5922 14.1345 42.5181 14.3213 42.5181H41.0948C41.2816 42.5181 41.4607 42.5922 41.5927 42.7243C41.7247 42.8563 41.7989 43.0354 41.7989 43.2222C41.7989 43.4089 41.7247 43.588 41.5927 43.72C41.4607 43.8521 41.2816 43.9263 41.0948 43.9263H14.3213Z" fill="#CF9646"/>
<path fill-rule="evenodd" clip-rule="evenodd" d="M42.3794 28.792C42.8143 29.081 43.1712 29.4728 43.4183 29.9328C43.6655 30.3927 43.7953 30.9066 43.7963 31.4287V44.4479C43.7942 45.288 43.4595 46.0931 42.8655 46.6872C42.2715 47.2812 41.4664 47.6159 40.6263 47.618H42.3994C43.2395 47.6159 44.0446 47.2812 44.6386 46.6872C45.2326 46.0931 45.5673 45.288 45.5693 44.4479V31.4289C45.57 31.013 45.4876 30.6011 45.3271 30.2174C45.0859 29.6391 44.6795 29.1448 44.1587 28.7964C43.638 28.4481 43.026 28.2611 42.3994 28.259H40.6263C41.2506 28.2589 41.8608 28.4444 42.3794 28.792ZM23.6305 27.056L20.7713 24.2623L20.1868 23.6894C19.5312 23.0508 18.9069 22.4863 17.989 22.4863H16.2188C17.1338 22.4863 17.7581 23.0508 18.4138 23.6894L20.7713 25.9927L21.8603 27.056C22.513 27.6974 23.1373 28.259 24.0553 28.259H25.8283C24.9104 28.259 24.2861 27.6974 23.6305 27.056Z" fill="#E6A74E"/>
<path fill-rule="evenodd" clip-rule="evenodd" d="M44.0007 37.6186C45.1875 37.6186 46.3477 37.2666 47.3345 36.6073C48.3213 35.9479 49.0904 35.0107 49.5446 33.9142C49.9988 32.8178 50.1176 31.6112 49.8861 30.4472C49.6545 29.2832 49.083 28.214 48.2438 27.3747C47.4046 26.5355 46.3354 25.964 45.1714 25.7325C44.0073 25.501 42.8008 25.6198 41.7043 26.074C40.6078 26.5281 39.6707 27.2973 39.0113 28.2841C38.3519 29.2709 38 30.431 38 31.6179C38.003 33.2084 38.6361 34.733 39.7608 35.8577C40.8855 36.9824 42.4101 37.6156 44.0007 37.6186Z" fill="#25C73B"/>
<path d="M40.4098 32.4324C40.3427 32.3675 40.2892 32.2898 40.2523 32.204C40.2155 32.1181 40.1962 32.0258 40.1953 31.9324C40.1945 31.8391 40.2123 31.7464 40.2476 31.66C40.2829 31.5735 40.3351 31.4949 40.401 31.4288C40.467 31.3627 40.5454 31.3103 40.6318 31.2748C40.7182 31.2393 40.8108 31.2213 40.9041 31.2218C40.9975 31.2224 41.0899 31.2415 41.1758 31.2781C41.2618 31.3147 41.3395 31.368 41.4047 31.435L42.7559 32.7861L46.584 28.958C46.7159 28.8261 46.8948 28.752 47.0814 28.752C47.268 28.7519 47.4469 28.8261 47.5789 28.958C47.7108 29.0899 47.7849 29.2688 47.7849 29.4554C47.7849 29.642 47.7108 29.8209 47.5789 29.9528L43.2519 34.2797C43.1197 34.4112 42.9409 34.4849 42.7544 34.4849C42.568 34.4849 42.3892 34.4112 42.257 34.2797L40.4098 32.4324Z" fill="#EAF6FF"/>
<path fill-rule="evenodd" clip-rule="evenodd" d="M43.4923 25.6371C44.9646 25.7619 46.3391 26.4255 47.3526 27.5006C48.3661 28.5758 48.9474 29.987 48.9852 31.4641C49.023 32.9412 48.5146 34.3803 47.5574 35.5059C46.6001 36.6315 45.2613 37.3644 43.7974 37.5644C43.696 37.5787 43.5943 37.5901 43.4923 37.5985C43.5949 37.6071 43.6947 37.6128 43.7974 37.6157C43.8657 37.6186 43.9341 37.6186 44.0024 37.6186C44.532 37.6195 45.0593 37.5495 45.5703 37.4104C46.9743 37.0304 48.1924 36.1533 48.9982 34.9424C49.804 33.7314 50.1425 32.2691 49.9508 30.8272C49.7591 29.3854 49.0503 28.0623 47.9561 27.1039C46.8619 26.1456 45.457 25.6172 44.0024 25.6172C43.8313 25.6172 43.6606 25.6229 43.4922 25.6367L43.4923 25.6371Z" fill="#21B335"/>
<path fill-rule="evenodd" clip-rule="evenodd" d="M41.0938 14.7246V26.364C41.4994 26.1397 41.93 25.9637 42.3766 25.8395V14.7246H41.0938Z" fill="#D3DDE6"/>
</g>
<defs>
<clipPath id="clip0_408_125">
<rect width="50" height="50" fill="white"/>
</clipPath>
</defs>
</svg>
