<svg width="50" height="50" viewBox="0 0 50 50" fill="none" xmlns="http://www.w3.org/2000/svg">
<path d="M42.4232 9.82617L39.1961 45.9784L24.6899 50L10.2237 45.9841L7 9.82617H42.4232Z" fill="#264DE4"/>
<path d="M36.4326 43.675L39.1904 12.7812H24.7109V46.9247L36.4326 43.675Z" fill="#2965F1"/>
<path d="M14.3906 26.1934L14.7881 30.6279H24.7119V26.1934H14.3906Z" fill="#EBEBEB"/>
<path d="M24.7137 17.2168H24.6983H13.5938L13.9969 21.6515H24.7137V17.2168Z" fill="#EBEBEB"/>
<path d="M24.7101 42.3228V37.709L24.6906 37.7142L19.7518 36.3806L19.436 32.8438H17.0361H14.9844L15.6057 39.8067L24.6897 42.3285L24.7101 42.3228Z" fill="#EBEBEB"/>
<path d="M15.3359 0H20.707V2.24609H17.582V4.49219H20.707V6.73828H15.3359V0Z" fill="#181818"/>
<path d="M21.7812 0H27.1523V1.95312H24.0273V2.34375H27.1523V6.83594H21.7812V4.78516H24.9063V4.39453H21.7812V0Z" fill="#181818"/>
<path d="M28.2266 0H33.5977V1.95312H30.4727V2.34375H33.5977V6.83594H28.2266V4.78516H31.3516V4.39453H28.2266V0Z" fill="#181818"/>
<path d="M30.1561 30.6272L29.6413 36.3785L24.6953 37.7135V42.3272L33.7865 39.8075L33.8532 39.0583L34.8953 27.3834L35.0035 26.1926L35.8041 17.2168H24.6953V21.6515H30.9441L30.5406 26.1926H24.6953V30.6272H30.1561Z" fill="white"/>
</svg>
