<svg width="50" height="50" viewBox="0 0 50 50" fill="none" xmlns="http://www.w3.org/2000/svg">
<path d="M12.2729 14.1264L16.3098 27.851L20.3462 14.1264H31.29V15.4907L27.1693 22.5898C28.6169 23.0538 29.7117 23.8988 30.4538 25.1233C31.1964 26.3486 31.5681 27.7862 31.5681 29.4379C31.5681 31.4802 31.0245 33.1967 29.9386 34.5881C28.8526 35.9795 27.4469 36.6757 25.7212 36.6757C24.4217 36.6757 23.29 36.2633 22.3255 35.4374C21.3602 34.6114 20.646 33.4936 20.1821 32.0826L22.4643 31.1362C22.7986 31.99 23.2395 32.6629 23.7871 33.154C24.3345 33.646 24.9795 33.8921 25.7217 33.8921C26.5005 33.8921 27.16 33.456 27.6981 32.584C28.2367 31.7117 28.506 30.6636 28.506 29.4376C28.506 28.0826 28.2181 27.0338 27.6433 26.2917C26.974 25.4198 25.9255 24.9831 24.4967 24.9831H23.3838V23.6471L27.2807 16.9098H22.5771L22.3095 17.3655L16.5879 36.6721H16.3095L12.1333 22.6981L7.9581 36.6721H7.68L1 14.1255H3.92286L7.95929 27.85L10.6879 18.6083L9.3519 14.126H12.274V14.125L12.2729 14.1264Z" fill="#005A9C"/>
<path d="M46.4763 14.127C45.9025 14.127 45.3873 14.3339 44.9966 14.7305C44.5823 15.1515 44.3516 15.695 44.3516 16.2572C44.3516 16.8193 44.5711 17.3403 44.9732 17.7491C45.382 18.1634 45.9085 18.3886 46.4766 18.3886C47.0323 18.3886 47.5718 18.1636 47.9911 17.7558C48.3932 17.365 48.6128 16.8443 48.6128 16.2584C48.6128 15.69 48.3878 15.1577 47.9975 14.761C47.5928 14.3455 47.0594 14.127 46.4785 14.127H46.4763ZM48.3287 16.2755C48.3287 16.767 48.1385 17.2229 47.7906 17.5596C47.4232 17.9153 46.9675 18.1046 46.4644 18.1046C45.9916 18.1046 45.5242 17.9098 45.1744 17.5543C44.8256 17.1986 44.6299 16.7434 44.6299 16.2584C44.6299 15.7729 44.8313 15.2996 45.192 14.9331C45.5292 14.5896 45.9844 14.4067 46.4816 14.4067C46.9909 14.4067 47.4461 14.597 47.8013 14.957C48.1466 15.2993 48.3299 15.76 48.3299 16.2755H48.3287ZM46.5359 15.0086H45.6249V17.4236H46.0806V16.3941H46.5308L47.022 17.4236H47.5309L46.9918 16.3234C47.3406 16.2517 47.5425 16.0155 47.5425 15.6724C47.5449 15.2343 47.2116 15.0086 46.5378 15.0086H46.5359ZM46.4525 15.3048C46.8785 15.3048 47.0737 15.4234 47.0737 15.7191C47.0737 16.0027 46.8785 16.1041 46.4635 16.1041H46.0785V15.3048H46.4525Z" fill="black"/>
<path d="M42.8978 14L43.3711 16.8786L41.6952 20.0855C41.6952 20.0855 41.0521 18.7248 39.983 17.9724C39.0828 17.3381 38.4959 17.2 37.5783 17.3893C36.4 17.6324 35.0638 19.0412 34.4807 20.7783C33.783 22.8562 33.7761 23.8624 33.7514 24.786C33.7123 26.2676 33.9457 27.1421 33.9457 27.1421C33.9457 27.1421 32.9278 25.2598 32.9376 22.5026C32.944 20.534 33.2538 18.7493 34.1642 16.9883C34.9654 15.4398 36.1564 14.5102 37.2135 14.401C38.3064 14.2883 39.1695 14.8148 39.8373 15.3845C40.5376 15.9836 41.2459 17.2917 41.2459 17.2917L42.8935 14H42.8978Z" fill="black"/>
<path d="M43.1043 30.2873C43.1043 30.2873 42.3636 31.6119 41.9022 32.1219C41.4405 32.6326 40.6146 33.5309 39.5948 33.9807C38.5751 34.4299 38.0403 34.514 37.032 34.4178C36.0251 34.3211 35.0891 33.738 34.7612 33.4947C34.4334 33.2514 33.5951 32.5354 33.121 31.8671C32.6467 31.1988 31.9062 29.8633 31.9062 29.8633C31.9062 29.8633 32.3186 31.2021 32.5777 31.7704C32.726 32.0978 33.1827 33.098 33.8315 33.9685C34.4365 34.7804 35.6113 36.1788 37.3965 36.4945C39.1817 36.8107 40.4084 36.0085 40.7122 35.8147C41.0153 35.6209 41.6553 35.0847 42.0608 34.6507C42.4834 34.1992 42.8839 33.6221 43.1048 33.2761C43.2672 33.023 43.5308 32.5107 43.5308 32.5107L43.1046 30.289L43.1043 30.2873Z" fill="black"/>
</svg>
