<svg width="50" height="50" viewBox="0 0 50 50" fill="none" xmlns="http://www.w3.org/2000/svg">
<g clip-path="url(#clip0_408_178)">
<path d="M47.8396 10.7236L45.9899 12.5377L46.0016 11.34C46.0259 8.84861 45.0786 6.49694 43.334 4.71799C41.5894 2.93918 39.2567 1.94618 36.7653 1.92188L36.7344 5.08508C38.3809 5.10104 39.9226 5.7573 41.0754 6.93291C42.2281 8.10853 42.8543 9.6626 42.8384 11.3091L42.8267 12.507L41.0125 10.657L38.754 12.872L44.3491 18.5772L50.0545 12.982L47.8396 10.7236Z" fill="#74BAAB"/>
<path d="M8.92449 43.363C7.77159 42.1874 7.14553 40.6334 7.16149 38.9868L7.17314 37.7889L8.98732 39.6389L11.2458 37.424L5.65071 31.7188L-0.0546875 37.314L2.16024 39.5725L4.00993 37.7585L3.99829 38.9561C3.97399 41.4475 4.92126 43.7992 6.66585 45.5781C8.41044 47.3569 10.7431 48.3499 13.2346 48.3742L13.2655 45.211C11.6189 45.1949 10.0774 44.5387 8.92449 43.363Z" fill="#74BAAB"/>
<path d="M22.8562 1H7.1875V29.8275H29.3732V7.51694L22.8562 1Z" fill="#ACB3CD"/>
<path d="M29.3756 7.51694L22.8585 1H17.75V29.8275H29.3756V7.51694Z" fill="#DCE1EB"/>
<path d="M22.8594 7.51694H29.3765L22.8594 1V7.51694Z" fill="#C4CBDD"/>
<path d="M38.5671 17.6875H22.8984V46.5151H45.0842V24.2046L38.5671 17.6875Z" fill="#FFD400"/>
<path d="M45.0871 24.2046L38.57 17.6875H34.4375V46.5151H45.0871V24.2046Z" fill="#FFB000"/>
<path d="M38.5703 24.2046H45.0874L38.5703 17.6875V24.2046Z" fill="#FFA300"/>
</g>
<defs>
<clipPath id="clip0_408_178">
<rect width="50" height="50" fill="white"/>
</clipPath>
</defs>
</svg>
