<svg version="1.2" xmlns="http://www.w3.org/2000/svg" viewBox="0 0 123 113" width="123" height="113">
	<title>retail-store-icon-svg</title>
	<style>
		.s0 { fill: #000000 } 
	</style>
	<path id="Layer" fill-rule="evenodd" class="s0" d="m114.6 52.6v53q0 1.3-0.5 2.5-0.5 1.2-1.4 2.1-1 1-2.2 1.5-1.2 0.4-2.5 0.5h-93.2q-0.6-0.1-1.2-0.2-0.7-0.1-1.3-0.4-0.6-0.2-1.1-0.6-0.5-0.3-1-0.8-0.4-0.4-0.8-1-0.3-0.5-0.6-1.1-0.2-0.6-0.4-1.2-0.1-0.6-0.1-1.3v-52.9q0.7 0.1 1.4 0.2 0.6 0.1 1.3 0.1 0.7 0.1 1.3 0.1 0.7 0 1.4-0.1v52.6q0 0.1 0 0.2 0 0.2 0.1 0.3 0 0.1 0.1 0.1 0.1 0.1 0.1 0.2 0.1 0.1 0.2 0.2 0.1 0 0.2 0.1 0.1 0 0.2 0 0.1 0 0.2 0h45v-40.3c0-1.3 0.3-2.6 0.8-3.7 0.5-1.2 1.2-2.3 2.1-3.2 0.9-0.9 2-1.6 3.1-2.1 1.2-0.5 2.5-0.7 3.8-0.8h16c1.3 0.1 2.6 0.3 3.8 0.8 1.1 0.5 2.2 1.2 3.1 2.1 0.9 0.9 1.6 2 2.1 3.2 0.5 1.1 0.8 2.4 0.8 3.7v40.3h12.7q0.2 0 0.4 0 0.2-0.1 0.3-0.3 0.2-0.1 0.3-0.3 0.1-0.3 0.1-0.5v-52.8q0.7 0.1 1.3 0.1 0.7 0 1.4 0 0.6 0 1.3-0.1 0.7-0.1 1.4-0.2zm-50.3 54.1h26.6l-0.1-40.3q0-1.1-0.4-2-0.4-1-1.1-1.7-0.7-0.7-1.7-1.1-0.9-0.4-2-0.4h-16q-1.1 0-2 0.4-1 0.4-1.7 1.1-0.8 0.7-1.2 1.7-0.4 0.9-0.4 2zm4.9-19.6c0.7 0.1 1.3 0.5 1.6 1.1 0.3 0.7 0.1 1.4-0.4 1.9-0.5 0.5-1.2 0.7-1.9 0.4-0.6-0.2-1-0.9-1.1-1.6q0-0.3 0.2-0.6 0.1-0.4 0.4-0.6 0.2-0.3 0.5-0.4 0.3-0.1 0.7-0.1zm-39.2-23.2h16.1q0.5 0.1 0.9 0.2 0.4 0.2 0.7 0.5 0.3 0.3 0.5 0.7 0.2 0.5 0.2 0.9v23.9q0 0.5-0.2 0.9-0.2 0.4-0.5 0.7-0.3 0.4-0.7 0.5-0.4 0.2-0.9 0.2h-16.1q-0.5 0-0.9-0.2-0.4-0.1-0.7-0.5-0.3-0.3-0.5-0.7-0.2-0.4-0.2-0.9v-23.9q0-0.4 0.2-0.9 0.2-0.4 0.5-0.7 0.3-0.3 0.7-0.5 0.4-0.1 0.9-0.2zm13.8 4.6h-11.5v19.4h11.5zm62.3-22.3c-1.3-0.5-4.3-1.3-5.3-2.3q-0.3-0.3-0.6-0.7-0.3-0.3-0.6-0.7-0.2-0.3-0.5-0.7-0.2-0.4-0.4-0.8-0.2 0.4-0.5 0.8-0.2 0.4-0.5 0.7-0.3 0.4-0.5 0.7-0.3 0.4-0.6 0.7c-2.2 2.1-7 3.5-10.3 3.5-3.3 0-8.2-1.4-10.3-3.5q-0.3-0.3-0.6-0.7-0.3-0.3-0.6-0.7-0.2-0.3-0.5-0.7-0.2-0.4-0.4-0.8-0.2 0.4-0.5 0.8-0.2 0.4-0.5 0.7-0.2 0.4-0.5 0.7-0.3 0.4-0.6 0.7c-2.2 2.1-7 3.5-10.3 3.5-3.3 0-8.2-1.4-10.3-3.5q-0.3-0.3-0.6-0.7-0.3-0.3-0.6-0.7-0.3-0.3-0.5-0.7-0.3-0.4-0.5-0.8-0.2 0.4-0.4 0.8-0.3 0.4-0.6 0.7-0.2 0.4-0.5 0.7-0.3 0.4-0.6 0.7c-2.2 2.1-7 3.5-10.3 3.5-3.3 0-8.2-1.4-10.3-3.5q-0.3-0.3-0.6-0.7-0.3-0.3-0.6-0.7-0.2-0.3-0.5-0.7-0.2-0.4-0.4-0.8-0.2 0.4-0.5 0.8-0.2 0.4-0.5 0.7-0.2 0.4-0.5 0.7-0.3 0.4-0.6 0.7c-1.4 1.4-5.2 2.5-7.1 3-4 0.5-8.6-0.1-11.6-3q-0.8-0.8-1.4-1.8-0.7-1-1.1-2-0.5-1.1-0.7-2.2-0.2-1.2-0.2-2.3v-4.7q0-0.1 0-0.2 0 0 0-0.1 0.1-0.1 0.1-0.2 0-0.1 0.1-0.1l8.3-26.7c0.7-2.2 2.3-3.6 5.6-3.8h94.1c2.9 0.4 4.8 1.6 5.5 3.8l9 26.6q0.1 0.1 0.1 0.2 0 0 0.1 0.1 0 0.1 0 0.2 0 0.1 0 0.1 0 0.1 0 0.1 0 0 0 0 0 0 0 0 0 0.1 0 0.1v4.6q0 1.1-0.2 2.3-0.2 1.1-0.7 2.2-0.4 1-1.1 2-0.6 1-1.4 1.8c-3.5 3.5-8.8 3.4-13.4 2.3z"/>
</svg>