<svg version="1.2" xmlns="http://www.w3.org/2000/svg" viewBox="0 0 512 512" width="512" height="512"><style>.a{fill:#c1976f}</style><filter id="f0"><feFlood flood-color="#35bfbf" flood-opacity="1" /><feBlend mode="normal" in2="SourceGraphic"/><feComposite in2="SourceAlpha" operator="in" /></filter><g filter="url(#f0)"><path fill-rule="evenodd" class="a" d="m448.2 1.1c9.6 2 19.2 7.3 26.6 14.8 7.9 8 12.6 16.4 14.7 26.6 1.9 9.1 2 31.4 0.2 35.8-2.7 6.4-1.2 6.2-44.6 6.7l-39.6 0.5-0.1 145.3c-0.1 121.6-0.3 145.6-1.4 147.8-2.9 5.3-3.7 5.4-45.4 5.4h-38.4l-0.4 33.7c-0.4 32-0.5 34.2-2.7 40.8-8.3 25-25.5 42.2-50.6 50.7l-7 2.3-115 0.3c-112.2 0.2-115.1 0.2-118.1-1.7-4.4-2.7-6-7.7-4-12.4 2-4.8 5.1-6.6 12.7-7.3 7.9-0.7 17.9-3.7 23.9-7.2 6.5-3.8 16-13.9 19.7-20.9 6-11.1 6.3-13.9 6.3-54.4 0-20.9 0.5-40.1 1.1-44.6 3.5-25.4 18.8-46 42.4-57.4 11.9-5.8 18.6-6.9 42.7-6.9h20.7l0.3-119.3 0.3-119.2 2.3-7c9.4-27.9 31.8-47.9 59-52.5 7.6-1.3 188.2-1.2 194.4 0.1zm-188.2 20.9c-20.2 2.5-38 17.4-44.3 37.5l-2.2 7v232h73c81.3 0.1 78-0.1 91.3 7.1l6.2 3.4v-130.8c0-144.7-0.3-137.6 6.5-150 1.9-3.4 3.5-6.5 3.5-6.7 0-0.8-127.1-0.3-134 0.5zm167.4 1c-8.3 2.6-18.1 12.5-20.4 20.8-0.5 2-1.3 7.4-1.6 11.9l-0.7 8.3h64.5l-0.4-9.8c-0.3-8-0.9-10.6-3-14.7-3.3-6.3-8.8-11.8-14.7-14.7-5.1-2.5-18.1-3.5-23.7-1.8zm-118.4 297l-77.3 0.1c-60.1 0-78.5 0.4-83.3 1.4-16.9 3.7-31.7 16.8-38.5 34-2.3 5.9-2.3 6.9-3 50-0.6 41.5-0.7 44.4-2.8 51.5-2.9 9.8-9 21.2-14.6 27.7-2.5 2.8-4.5 5.4-4.5 5.8 0 0.3 38.1 0.5 84.8 0.3 84.6-0.3 84.7-0.4 91.3-2.6 16.2-5.4 29.8-19 35.1-35.2 2.1-6.3 2.2-8.4 2.5-58 0.4-56.8 0.4-56.9 6.9-68.8zm14.2 18.9c-1.9 4.2-2.6 7.6-3 14.8l-0.5 9.3h64.6l-0.5-9.3c-0.8-15-6.8-25-18.4-30.3-16-7.5-34.7-0.6-42.2 15.5z"/><path class="a" d="m240 65.7c-3.9 2.7-4.9 4.5-5 9 0 3.3 0.6 4.8 3.1 7.2l3.1 3.1h57.2c56 0 57.4 0 59.9-2 3.8-3 5.2-8 3.3-12.3-2.8-6.9-1.2-6.7-63.3-6.7-51 0-56.1 0.1-58.3 1.7z"/><path class="a" d="m240 129.7c-3.9 2.7-4.9 4.5-5 9 0 3.3 0.6 4.8 3.1 7.2l3.1 3.1h57.2c56 0 57.4 0 59.9-2 3.8-3 5.2-8 3.3-12.3-2.8-6.9-1.2-6.7-63.3-6.7-51 0-56.1 0.1-58.3 1.7z"/><path class="a" d="m240 193.7c-3.9 2.7-4.9 4.5-5 9 0 3.3 0.6 4.8 3.1 7.2l3.1 3.1h57.2c56 0 57.4 0 59.9-2 3.8-3 5.2-8 3.3-12.3-2.8-6.9-1.2-6.7-63.3-6.7-51 0-56.1 0.1-58.3 1.7z"/><path class="a" d="m240 257.7c-3.9 2.7-4.9 4.5-5 9 0 3.3 0.6 4.8 3.1 7.2l3.1 3.1h57.2c56 0 57.4 0 59.9-2 3.8-3 5.2-8 3.3-12.3-2.8-6.9-1.2-6.7-63.3-6.7-51 0-56.1 0.1-58.3 1.7z"/><path class="a" d="m131.7 365.6c-1.5 1.4-2.9 3.5-3.3 4.6-1 3.3 0.5 8.3 3.2 10.9l2.6 2.4 66.6 0.3c36.7 0.1 67.6 0 68.8-0.2 1.1-0.3 3.3-1.8 4.7-3.2 4-3.9 3.8-10.2-0.4-14.3l-3.1-3.1h-68.2-68.3z"/><path class="a" d="m131.7 429.6c-1.5 1.4-2.9 3.5-3.3 4.6-1 3.3 0.5 8.3 3.2 10.9l2.6 2.4 66.6 0.3c36.7 0.1 67.6 0 68.8-0.2 1.1-0.3 3.3-1.8 4.7-3.2 4-3.9 3.8-10.2-0.4-14.3l-3.1-3.1h-68.2-68.3z"/></g></svg>