<svg version="1.2" xmlns="http://www.w3.org/2000/svg" viewBox="0 0 512 512" width="512" height="512"><defs><clipPath clipPathUnits="userSpaceOnUse" id="cp1"><path d="m0 0h512v512h-512z"/></clipPath></defs><style>.a{fill:#c1976f}</style><filter id="f0"><feFlood flood-color="#35bfbf" flood-opacity="1" /><feBlend mode="normal" in2="SourceGraphic"/><feComposite in2="SourceAlpha" operator="in" /></filter><g clip-path="url(#cp1)" filter="url(#f0)"><path fill-rule="evenodd" class="a" d="m225.2 0.3c147.9 0.2 148.7 0.2 151.5 2.2 3.8 2.8 68.8 99.9 70.2 105 0.9 2.9 1.1 23.1 0.9 71.2-0.3 66-0.3 67.2-2.4 69.9-3.9 5.3-7.1 6.9-13.4 6.9-6.3 0-9.5-1.6-13.4-6.9-2.1-2.7-2.1-3.9-2.4-61.7l-0.2-58.9h-127.9l-0.3 42.9c-0.3 41.6-0.4 43-2.4 45.7-3.1 4.2-6.7 6.5-11.1 7.1-3.3 0.4-8.4-0.9-27.2-7.2l-23.1-7.7-23.1 7.7c-18.8 6.3-23.9 7.6-27.2 7.2-4.4-0.6-8-2.9-11.1-7.1-2-2.7-2.1-4.1-2.4-45.7l-0.3-42.9h-127.9v288l106.9 0.2c106.3 0.3 107 0.3 109.7 2.4 5.3 3.9 6.9 7.1 6.9 13.4 0 6.3-1.6 9.5-6.9 13.4-2.7 2.1-3.4 2.1-111.4 2.4-82.1 0.2-109.8 0-113.2-0.9-10.2-2.7-20.1-12.5-22.9-22.4-1.6-5.9-1.6-312.9 0.1-317.6 1.3-3.8 65.5-100.5 68.4-103.1 1.1-0.9 3.1-2.1 4.4-2.7 1.6-0.6 54.5-0.9 151.2-0.8zm-52.1 31.7h-42.3l-42.3 0.1-21.3 31.9-21.2 32 58.2-0.2 58.2-0.3 4.8-28.5c2.6-15.7 5-30 5.3-31.8zm69.3 0.5l-18.2-0.3c-14.1-0.2-18.3 0-18.7 1-0.2 0.7-2.4 13.9-4.9 29.3-2.6 15.4-4.9 29.2-5.2 30.7l-0.6 2.8h58.3l-0.6-3.3c-0.3-1.7-2.7-16-5.3-31.7zm117.1-0.4l-42.3-0.1h-42.3l0.6 3.2c0.3 1.8 2.7 16.1 5.3 31.8l4.8 28.5 58.2 0.3 58.2 0.2-21.2-32zm-103.5 95.9h-64v57.9l14.7-5c8.1-2.7 15.9-4.9 17.3-4.9 1.4 0 9.2 2.2 17.3 4.9l14.7 5z"/><path fill-rule="evenodd" class="a" d="m418.5 289.6c53.9 9.3 93.5 56.1 93.5 110.4 0 61.4-50.6 112-112 112-31.6 0-63.9-14.7-84.2-38.3-37.1-43.1-37.1-104.3 0-147.4 15.8-18.4 40.3-32.2 65.2-36.7 10.3-1.9 26.7-1.9 37.5 0zm-30.7 31.4c-18.3 3.3-32.8 11.1-45.4 24.2-9.7 10.1-16.2 21.6-20 35.8-2.7 9.9-2.5 29.1 0.4 39.3 4.3 15.1 11.2 26.6 22.4 37.3 10.1 9.7 21.6 16.2 35.8 20 9 2.5 29 2.5 38 0 28.9-7.9 50-28.7 58.2-57.3 2.9-10.2 3.1-29.4 0.4-39.3-7.8-28.7-28.7-50.1-56.8-58-8.2-2.3-25.5-3.4-33-2z"/><path class="a" d="m393.5 353.4c-3.7 1.7-7 5.2-8.4 8.9-1.7 4.4-1.4 40 0.3 44 0.8 1.8 9.9 11.6 20.2 21.9 20.3 20.1 21.7 20.9 30.1 19.3 4.9-0.9 10.9-6.9 11.8-11.8 1.6-8.2 0.5-10-16-26.7l-15.4-15.5-0.3-15.7c-0.3-17-0.8-18.4-7-23.1-3.4-2.5-11.3-3.2-15.3-1.3z"/></g></svg>