<svg version="1.2" xmlns="http://www.w3.org/2000/svg" viewBox="0 0 512 512" width="512" height="512"><style>.a{fill:#35bfbf}</style><path fill-rule="evenodd" class="a" d="m257.5 0.3l129 0.2 5.3 2.9c2.9 1.7 6.6 4.4 8.1 6.1 2.5 2.8 73.2 124.2 77.3 132.7 1.7 3.5 1.8 12.2 1.8 171 0 175.9 0.1 172-4.3 180.4-2.7 5.2-10.5 12.4-16.5 15.2l-5.7 2.7h-393l-5.7-2.7c-6-2.8-13.8-10-16.5-15.2-4.4-8.4-4.3-4.6-4.3-179.2 0-140.7 0.2-166.8 1.4-170.2 1.5-4.3 72.2-127.5 76.3-133 2.9-3.8 8.6-7.8 14-9.8 3.1-1.1 26-1.3 132.8-1.1zm-16.5 29.7h-106.8l-27.6 47.9c-15.2 26.4-27.6 48.2-27.6 48.5 0 0.3 36.5 0.6 81 0.6h81zm136.8 0h-105.8v97h80.6c74.1 0 80.6-0.1 80-1.6-0.4-0.9-12.8-22.7-27.7-48.5zm71.2 127h-386v160.5c0 159.2 0 160.5 2 162.5 2 2 3.3 2 191 2 187.7 0 189 0 191-2 2-2 2-3.3 2-162.5z"/><path class="a" d="m306 267.6c-1.4 0.9-17.8 16.9-36.5 35.5l-34 33.9-13.5-13.6c-7.4-7.4-14.7-14.2-16.2-15-7.9-4.1-18.8 1.1-20.8 10.1-1.7 7.4-0.3 9.5 21.3 31.3 11.1 11.2 21.4 21 22.9 21.8 3.5 1.8 10.1 1.8 13.6 0 1.5-0.8 21-19.8 43.4-42.3 34.9-35 40.8-41.4 41.7-44.9 1.7-6.4-0.8-12.7-6.6-16.5-3.6-2.4-11.9-2.5-15.3-0.3z"/></svg>