<svg width="4320" height="1253" viewBox="0 0 4320 1253" fill="none" xmlns="http://www.w3.org/2000/svg">
<g clip-path="url(#clip0_368_96)">
<path d="M1445.45 276.578H1857.81C1956.37 276.578 2043.25 294.093 2118.46 329.126C2194.53 363.362 2253.32 411.927 2294.81 474.825C2337.17 537.726 2358.35 610.973 2358.35 694.571C2358.35 778.17 2337.17 851.42 2294.81 914.318C2253.32 977.216 2194.53 1026.18 2118.46 1061.21C2043.25 1095.45 1956.37 1112.57 1857.81 1112.57H1445.45V276.578ZM1847.44 953.728C1938.21 953.728 2010.39 930.639 2063.99 884.459C2118.46 837.486 2145.69 774.19 2145.69 694.571C2145.69 614.953 2118.46 552.055 2063.99 505.878C2010.39 458.903 1938.21 435.415 1847.44 435.415H1655.52V953.728H1847.44ZM3130.13 681.436H3322.04V1020.61C3272.77 1054.84 3215.72 1081.12 3150.88 1099.43C3086.04 1117.74 3020.77 1126.9 2955.07 1126.9C2860.84 1126.9 2776.12 1108.58 2700.91 1071.96C2625.7 1034.54 2566.48 983.185 2523.26 917.899C2480.9 851.816 2459.72 777.375 2459.72 694.571C2459.72 611.768 2480.9 537.726 2523.26 472.437C2566.48 406.354 2626.13 355.002 2702.21 318.379C2778.28 280.957 2863.87 262.248 2958.96 262.248C3038.49 262.248 3110.68 274.589 3175.51 299.27C3240.34 323.952 3294.81 359.777 3338.89 406.753L3204.03 521.402C3139.21 458.504 3060.97 427.055 2969.33 427.055C2911.41 427.055 2859.97 438.202 2815.02 460.496C2770.07 482.789 2735.06 514.238 2709.99 554.842C2684.92 595.446 2672.38 642.023 2672.38 694.571C2672.38 746.322 2684.92 792.503 2709.99 833.107C2735.06 873.711 2769.64 905.559 2813.73 928.647C2858.68 950.941 2909.68 962.088 2966.74 962.088C3027.25 962.088 3081.72 950.146 3130.13 926.26V681.436ZM3952.87 816.386V1112.57H3742.82V813.999L3391.41 276.578H3614.43L3856.94 647.995L4099.42 276.578H4305.59L3952.87 816.386Z" fill="#212529"/>
<path fill-rule="evenodd" clip-rule="evenodd" d="M159.709 72H1033.88C1124.91 72 1199.42 140.606 1199.42 224.442V1029.56C1199.42 1078.02 1174.54 1121.37 1135.95 1149.35C1132.91 1096.02 1132.25 1048.68 1132.25 1020.91C1132.25 974.451 1133.81 932.046 1136.7 901.682H1100.79C1073.49 1061.84 1017.73 1145.92 938.419 1181.97H652.394C640.45 1167.09 637.093 1142.65 637.093 1102.89V744.819H687.92C814.195 744.819 864.484 832.964 880.463 932.75H916.891C909.049 824.443 907.466 777.28 907.466 730.838C907.466 710.211 906.944 689.36 906.944 663.065C906.944 630.346 907.466 589.349 912.18 528.927H876.03C859.006 605.94 814.195 716.394 687.936 716.394H637.112V364.217C637.112 275.112 653.872 262.78 745.84 262.78H810.561C955.424 262.78 1037.93 328.664 1069.37 537.223H1105.26C1102.12 514.225 1100.81 478.223 1100.81 440.526C1100.81 399.514 1103.7 314.22 1111.54 230.079C1014.63 234.356 878.393 234.356 781.975 234.356C676.409 234.356 440.915 234.356 269.83 230.079V258.521C368.84 262.54 387.186 277.227 387.186 380.808V1086.33C387.186 1135.54 383.186 1164.59 368.248 1182H159.726C68.6973 1182 -5.8125 1113.39 -5.8125 1029.57V224.458C-5.8125 140.606 68.6798 72 159.709 72Z" fill="#898121"/>
</g>
<defs>
<clipPath id="clip0_368_96">
<rect width="4320" height="1253" fill="white"/>
</clipPath>
</defs>
</svg>
