<svg width="120" height="30" viewBox="0 0 120 30" fill="none" xmlns="http://www.w3.org/2000/svg">
<path d="M34.9991 0.130002C28.0051 0.178872 22.2842 7.77595 22.2842 14.4024C22.2842 21.3755 26.4778 29.8817 34.9991 29.8541C43.5204 29.8265 47.9432 20.6689 47.9432 14.4024C47.9432 7.48049 41.9932 0.0811323 34.9991 0.130002ZM34.9991 0.389911C40.8529 0.389911 42.4321 6.70832 42.4321 14.4024C42.4321 24.5545 40.5271 29.563 34.9991 29.5535C29.4711 29.5439 27.6728 25.4446 27.6728 14.4024C27.6728 7.48523 29.1454 0.389911 34.9991 0.389911Z" fill="#777777"/>
<path d="M50.253 14.59C50.2217 7.05018 56.3962 0.371358 61.623 0.03999C63.511 -0.0907332 65.9378 0.754237 67.3547 1.35616C68.3835 1.79325 70.4837 1.16058 70.8566 -0.00012207H71.06V10.2705H70.8566C70.8566 9.83268 68.9104 0.298211 61.623 0.298211C56.2403 0.298211 55.7203 9.54841 55.7203 14.59C55.7203 19.6316 55.8771 29.6122 62.1585 29.6122C65.2014 29.6122 67.4537 28.3111 68.0376 25.6789V17.6754H65.4835V17.3345H75.3837V17.6754H72.9419V29.3765H72.743C72.743 29.3765 72.3461 27.6882 70.3317 27.6938C67.757 27.701 65.3289 29.8871 62.3691 29.8605C54.5415 29.7901 50.2844 22.1298 50.253 14.59Z" fill="#777777"/>
<path d="M3.08262 1.14175H0V0.803101H10.7986V1.14175H8.08949L15.8054 21.6205C18.2181 14.3607 20.0873 8.9943 22.6027 1.14175H19.923V0.803101H25.6247V1.14175H23.0282L13.6504 29.7135L3.08262 1.14175Z" fill="#777777"/>
<path d="M76.8951 22.7194L76.8463 1.10983H73.9121V0.786133H84.7223V1.10983H81.7898L81.8549 24.8035C82.5041 27.5167 83.6583 29.5753 87.6015 29.606C91.5447 29.6366 94.2255 27.3262 95.2217 24.1687V1.10983H91.8651L91.8651 0.795668H119.338L119.395 11.1691H119.131C118.622 4.47137 115.978 1.9401 111.353 1.20164C109.762 0.947534 108.092 1.13591 105.982 1.11987V14.3591C107.819 14.4979 109.777 14.3844 111.096 13.277C112.296 12.2699 112.635 9.9433 112.723 8.99808H112.956V20.5254H112.704C112.632 20.5254 112.535 17.6326 111.096 16.2602C109.648 14.8788 107.804 14.5392 105.982 14.8683V29.0107C108.556 29.0107 110.608 29.2238 112.39 28.7464C117.806 27.295 119.713 22.8287 119.699 18.3492H120V29.3455H98.4507V29.0107H100.887V1.10983H95.6229V24.1687C95.0262 26.3751 92.8454 30.0251 87.2566 30.0002C82.0602 29.977 76.9063 27.6874 76.8951 22.7194Z" fill="#777777"/>
</svg>
