<svg width="50" height="50" viewBox="0 0 50 50" fill="none" xmlns="http://www.w3.org/2000/svg">
<path d="M10.5859 0H12.832V2.22656H14.9023V0H17.1484V6.73828H14.9023V4.49219H12.8516V6.73828H10.5859M20.1172 2.24609H18.1348V0H24.3555V2.24609H22.3633V6.73828H20.1172M25.3418 0H27.6953L29.1406 2.37305L30.5859 0H32.9395V6.73828H30.6934V3.39844L29.1211 5.82031L27.5488 3.39844V6.73828H25.3418M34.0527 0H36.2988V4.51172H39.4824V6.73828H34.0527" fill="#181818"/>
<path d="M10.5039 45.9961L7.28125 9.82422H42.7109L39.4883 45.9766L24.9668 50" fill="#E44D26"/>
<path d="M25 46.9238V12.793H39.4824L36.7188 43.6523" fill="#F16529"/>
<path d="M13.8672 17.2168H25V21.6504H18.7305L19.1406 26.1914H25V30.6152H15.0781M15.2734 32.8418H19.7266L20.0391 36.3867L25 37.7148V42.3437L15.8984 39.8047" fill="#EBEBEB"/>
<path d="M36.0977 17.2168H24.9844V21.6504H35.6875M35.2871 26.1914H24.9844V30.625H30.4531L29.9355 36.3867L24.9844 37.7148V42.3242L34.0664 39.8047" fill="white"/>
</svg>
