<svg width="50" height="50" viewBox="0 0 50 50" fill="none" xmlns="http://www.w3.org/2000/svg">
<g clip-path="url(#clip0_408_220)">
<path d="M44.4222 30.8789C44.2221 30.8789 44.0302 30.9584 43.8887 31.0999C43.7472 31.2414 43.6677 31.4333 43.6677 31.6334V42.2381C43.6677 44.8925 41.5007 47.0519 38.8371 47.0519H32.5123C32.3122 47.0519 32.1203 47.1313 31.9788 47.2728C31.8373 47.4143 31.7578 47.6062 31.7578 47.8063C31.7578 48.0065 31.8373 48.1984 31.9788 48.3399C32.1203 48.4813 32.3122 48.5608 32.5123 48.5608H38.8371C42.3328 48.5608 45.1768 45.7244 45.1768 42.238V31.6335C45.1768 31.4334 45.0973 31.2414 44.9557 31.0999C44.8142 30.9584 44.6223 30.8789 44.4222 30.8789Z" fill="#D9DDFF"/>
<path d="M30.4789 50.0008H34.4853C35.6817 50.0008 36.6517 49.0309 36.6517 47.8344C36.6517 46.6379 35.6817 45.668 34.4853 45.668H30.4789C29.2824 45.668 28.3125 46.6379 28.3125 47.8344C28.3125 49.0309 29.2824 50.0008 30.4789 50.0008Z" fill="#7776D0"/>
<path d="M47.843 36.9655H44.4911V22.8517C44.4911 12.1008 35.7508 3.3543 25.0075 3.3543C14.2643 3.3543 5.52383 12.1008 5.52383 22.8517V36.9655H2.17188V22.8517C2.17188 10.2513 12.4159 0 25.0074 0C37.599 0 47.843 10.2513 47.843 22.8517V36.9655Z" fill="#D9DDFF"/>
<path d="M7.67324 22.4766H4.26592C1.90996 22.4766 0 24.3865 0 26.7425V34.0335C0 36.3895 1.90996 38.2994 4.26592 38.2994H7.67324V22.4766Z" fill="#7776D0"/>
<path d="M7.67432 20.25C8.83203 20.25 9.77051 21.1885 9.77051 22.3462V38.1728C9.77051 39.3305 8.83203 40.2689 7.67432 40.2689C6.5166 40.2689 5.57812 39.3305 5.57812 38.1728V22.3462C5.57812 21.1886 6.5166 20.25 7.67432 20.25Z" fill="#E8F3FF"/>
<path d="M42.3281 38.0416H45.7354C48.0914 38.0416 50.0014 36.1316 50.0014 33.7757V26.4847C50.0014 24.1287 48.0914 22.2188 45.7354 22.2188H42.3281V38.0416Z" fill="#7776D0"/>
<path d="M42.3306 40.2689C41.1729 40.2689 40.2344 39.3305 40.2344 38.1728V22.3462C40.2344 21.1885 41.1729 20.25 42.3306 20.25C43.4883 20.25 44.4268 21.1885 44.4268 22.3462V38.1728C44.4268 39.3305 43.4883 40.2689 42.3306 40.2689Z" fill="#E8F3FF"/>
<path d="M24.9974 19.8945C30.8381 19.8945 35.5729 24.6285 35.5729 30.4682C35.5729 33.5473 34.2562 36.3186 32.1554 38.2511V41.039L29.6337 39.9736C28.2337 40.6575 26.6605 41.0418 24.9975 41.0418C19.1567 41.0418 14.4219 36.3078 14.4219 30.4682C14.4218 24.6285 19.1566 19.8945 24.9974 19.8945Z" fill="#FF8CCC"/>
<path d="M25.0021 19.8945C24.3142 19.8945 23.6415 19.9603 22.99 20.0857C27.8685 21.0252 31.5535 25.3164 31.5535 30.4683C31.5535 35.5137 27.7708 39.8827 22.9609 40.8451C23.6334 40.9764 24.317 41.0423 25.0021 41.042C26.6652 41.042 28.2384 40.6577 29.6384 39.9738L32.1601 41.0392V38.2513C34.2608 36.3188 35.5776 33.5476 35.5776 30.4684C35.5777 24.6285 30.8429 19.8945 25.0021 19.8945Z" fill="#FF78C2"/>
<path d="M22.9842 26.9895H27.0205C27.2206 26.9895 27.4125 26.91 27.554 26.7685C27.6955 26.627 27.775 26.4351 27.775 26.235C27.775 26.0349 27.6955 25.843 27.554 25.7015C27.4125 25.56 27.2206 25.4805 27.0205 25.4805H22.9842C22.7841 25.4805 22.5922 25.56 22.4507 25.7015C22.3092 25.843 22.2297 26.0349 22.2297 26.235C22.2297 26.4351 22.3092 26.627 22.4507 26.7685C22.5922 26.91 22.7841 26.9895 22.9842 26.9895ZM27.0205 33.9445H22.9842C22.7841 33.9445 22.5922 34.024 22.4507 34.1655C22.3092 34.307 22.2297 34.4989 22.2297 34.699C22.2297 34.8991 22.3092 35.091 22.4507 35.2325C22.5922 35.374 22.7841 35.4535 22.9842 35.4535H27.0205C27.2206 35.4535 27.4125 35.374 27.554 35.2325C27.6955 35.091 27.775 34.8991 27.775 34.699C27.775 34.4989 27.6955 34.307 27.554 34.1655C27.4125 34.024 27.2206 33.9445 27.0205 33.9445ZM29.1799 29.7125H20.8248C20.6247 29.7125 20.4328 29.792 20.2913 29.9335C20.1498 30.075 20.0703 30.2669 20.0703 30.467C20.0703 30.6671 20.1498 30.859 20.2913 31.0005C20.4328 31.142 20.6247 31.2215 20.8248 31.2215H29.1799C29.38 31.2215 29.5719 31.142 29.7134 31.0005C29.8549 30.859 29.9344 30.6671 29.9344 30.467C29.9344 30.2669 29.8549 30.075 29.7134 29.9335C29.5719 29.792 29.38 29.7125 29.1799 29.7125Z" fill="white"/>
<path d="M35.8181 0C30.8487 0 26.8203 4.02764 26.8203 8.99609C26.8203 11.6158 27.9406 13.9736 29.728 15.6178V17.9897L31.8735 17.0834C33.0646 17.6652 34.4031 17.9922 35.8181 17.9922C40.7874 17.9922 44.8158 13.9645 44.8158 8.99609C44.8158 4.02764 40.7874 0 35.8181 0Z" fill="#FFD54D"/>
<path d="M35.8168 0C35.1251 0 34.4517 0.078125 33.8047 0.225781C37.8053 1.13945 40.7903 4.71924 40.7903 8.996C40.7903 13.2727 37.8056 16.8522 33.8052 17.7661C34.4651 17.9167 35.1399 17.9925 35.8168 17.9921C40.786 17.9921 44.8146 13.9644 44.8146 8.996C44.8146 4.02764 40.7861 0 35.8168 0Z" fill="#FFC919"/>
<path d="M39.0351 6.28878C38.948 4.61134 37.5634 3.27082 35.8827 3.23693C34.248 3.20568 32.85 4.3965 32.6248 6.01046C32.6041 6.15915 32.5938 6.30908 32.5938 6.45919C32.5938 6.6593 32.6732 6.85121 32.8147 6.9927C32.9562 7.1342 33.1481 7.21369 33.3482 7.21369C33.5483 7.21369 33.7403 7.1342 33.8817 6.9927C34.0232 6.85121 34.1027 6.6593 34.1027 6.45919C34.1027 6.37873 34.1083 6.29796 34.1193 6.21916C34.239 5.36164 34.9861 4.72677 35.8522 4.74562C36.7456 4.76369 37.4817 5.4758 37.5279 6.36691C37.5526 6.84269 37.3862 7.29425 37.0593 7.63859C36.7321 7.98322 36.2907 8.17296 35.8165 8.17296C35.6164 8.17296 35.4245 8.25245 35.283 8.39395C35.1415 8.53544 35.062 8.72735 35.062 8.92746V11.5086C35.062 11.7087 35.1415 11.9006 35.283 12.0421C35.4245 12.1836 35.6164 12.2631 35.8165 12.2631C36.0166 12.2631 36.2085 12.1836 36.35 12.0421C36.4915 11.9006 36.571 11.7087 36.571 11.5086V9.59162C37.1702 9.4463 37.7238 9.13048 38.1536 8.67775C38.7685 8.03029 39.0814 7.18185 39.0351 6.28878ZM35.8166 13.3445C34.8456 13.3445 34.8439 14.8536 35.8166 14.8536C36.7876 14.8536 36.7893 13.3445 35.8166 13.3445Z" fill="white"/>
</g>
<defs>
<clipPath id="clip0_408_220">
<rect width="50" height="50" fill="white"/>
</clipPath>
</defs>
</svg>
