<svg width="50" height="50" viewBox="0 0 50 50" fill="none" xmlns="http://www.w3.org/2000/svg">
<path d="M16.0896 15.9334C14.9776 14.6105 14.3678 12.9379 14.3672 11.2097C14.3672 7.16318 17.6593 3.87109 21.7057 3.87109C25.7522 3.87109 29.0442 7.16318 29.0442 11.2097C29.0442 12.8885 28.4621 14.5303 27.4052 15.8327L26.2528 14.8975C27.108 13.8436 27.5601 12.5683 27.5601 11.2097C27.5601 7.98152 24.9338 5.35525 21.7057 5.35525C18.4776 5.35525 15.8513 7.98152 15.8513 11.2097C15.8517 12.5881 16.3381 13.9223 17.225 14.9776L16.0896 15.9334Z" fill="#1EA6C6"/>
<path d="M16.3018 21.0295C12.723 19.0548 10.5 15.2922 10.5 11.21C10.5 5.02878 15.5282 0 21.7088 0C27.8901 0 32.9188 5.02878 32.9188 11.21C32.9188 14.1997 31.7552 17.012 29.6423 19.1287L28.5919 18.0802C30.4252 16.2436 31.4346 13.8038 31.4346 11.21C31.4346 5.84712 27.0716 1.48416 21.7088 1.48416C16.3467 1.48416 11.9842 5.84712 11.9842 11.21C11.9842 14.7517 13.9133 18.0164 17.019 19.73L16.3018 21.0295Z" fill="#1EA6C6"/>
<path d="M39.5073 26.326V41.3069C39.5073 41.9142 39.4639 42.5216 39.3783 43.121C39.2915 43.7215 39.1636 44.3151 38.9935 44.8985C38.7504 45.7274 38.5677 46.5711 38.4467 47.4239C38.3245 48.2755 38.2629 49.1364 38.2629 50.0006H20.6299V47.288C20.6299 46.8496 20.5044 46.4318 20.2772 46.0767C20.0475 45.7142 19.7192 45.4247 19.3307 45.2422C18.9483 45.0618 18.4505 44.7535 17.9859 44.4453C17.1216 43.8702 16.4317 43.0689 15.9914 42.1289L13.0299 35.8109C12.7818 35.2819 12.6913 34.6925 12.7695 34.1135C12.8477 33.5344 13.0911 32.9901 13.4706 32.5458L14.481 31.3619C14.7709 31.0224 14.9858 30.6255 15.1117 30.1972C15.2376 29.7689 15.2717 29.3188 15.2116 28.8765C15.1968 28.7703 15.1888 28.6641 15.1888 28.5602C15.1888 27.3055 16.2083 26.2541 17.5007 26.2541C17.616 26.2541 17.7301 26.2586 17.8432 26.2701C18.2747 26.3066 18.6868 26.4162 19.0659 26.5852V11.2367C19.0659 10.506 19.3616 9.84615 19.8411 9.36666C20.0866 9.12116 20.3782 8.92652 20.6991 8.79389C21.02 8.66126 21.3639 8.59325 21.7111 8.59375C23.1701 8.59375 24.354 9.77651 24.354 11.2367V23.312C24.354 22.5814 24.6497 21.9215 25.1281 21.442C25.6076 20.9636 26.2675 20.6679 26.9981 20.6679C28.4583 20.6679 29.6411 21.8518 29.6411 23.312V25.1353C29.6411 24.4057 29.9368 23.7447 30.4151 23.2664C30.8935 22.788 31.5556 22.4923 32.2851 22.4923C33.7453 22.4923 34.9292 23.6751 34.9292 25.1353V26.3774C34.9292 25.1193 35.9236 24.0575 37.1817 24.037C37.829 24.0267 38.4147 24.2859 38.8371 24.7071C39.0497 24.9197 39.2183 25.1721 39.3333 25.4499C39.4483 25.7277 39.5074 26.0254 39.5073 26.326Z" fill="#FCD09F"/>
<path d="M19.0665 26.5846V34.8514C18.7285 34.8514 18.4226 34.7144 18.2022 34.494C18.0884 34.3805 17.9981 34.2456 17.9366 34.0971C17.8751 33.9486 17.8435 33.7894 17.8438 33.6287V26.2695C18.2753 26.3061 18.6874 26.4157 19.0665 26.5846Z" fill="#E2B991"/>
</svg>
