<svg width="50" height="50" viewBox="0 0 50 50" fill="none" xmlns="http://www.w3.org/2000/svg">
<g clip-path="url(#clip0_408_116)">
<path d="M0 17.7083V44.2708C0.00110362 45.79 0.605065 47.2466 1.67925 48.3207C2.75344 49.3949 4.21004 49.9989 5.72917 50H16.6667V17.7083H0ZM19.7917 14.5833H32.2917V0H5.72917C4.21004 0.00110362 2.75344 0.605065 1.67925 1.67925C0.605065 2.75344 0.00110362 4.21004 0 5.72917L0 14.5833H16.6667H19.7917ZM19.7917 17.7083H32.2917V50H19.7917V17.7083Z" fill="#DBF0FE"/>
<path d="M44.2682 0H35.4141V50H44.2682C45.7874 49.9989 47.244 49.3949 48.3181 48.3207C49.3923 47.2466 49.9963 45.79 49.9974 44.2708V5.72917C49.9963 4.21004 49.3923 2.75344 48.3181 1.67925C47.244 0.605065 45.7874 0.00110362 44.2682 0Z" fill="#94D7FC"/>
<path d="M33.8542 17.707H1.5625C1.1481 17.707 0.750671 17.5424 0.457646 17.2494C0.16462 16.9564 0 16.5589 0 16.1445C0 15.7301 0.16462 15.3327 0.457646 15.0397C0.750671 14.7467 1.1481 14.582 1.5625 14.582H33.8542C34.2686 14.582 34.666 14.7467 34.959 15.0397C35.2521 15.3327 35.4167 15.7301 35.4167 16.1445C35.4167 16.5589 35.2521 16.9564 34.959 17.2494C34.666 17.5424 34.2686 17.707 33.8542 17.707Z" fill="#42A5F5"/>
<path d="M18.2266 50C17.8122 50 17.4147 49.8354 17.1217 49.5424C16.8287 49.2493 16.6641 48.8519 16.6641 48.4375V16.1458C16.6641 15.7314 16.8287 15.334 17.1217 15.041C17.4147 14.748 17.8122 14.5833 18.2266 14.5833C18.641 14.5833 19.0384 14.748 19.3314 15.041C19.6244 15.334 19.7891 15.7314 19.7891 16.1458V48.4375C19.7891 48.8519 19.6244 49.2493 19.3314 49.5424C19.0384 49.8354 18.641 50 18.2266 50ZM33.8516 50C33.4372 50 33.0397 49.8354 32.7467 49.5424C32.4537 49.2493 32.2891 48.8519 32.2891 48.4375V1.5625C32.2891 1.1481 32.4537 0.750671 32.7467 0.457646C33.0397 0.16462 33.4372 0 33.8516 0C34.266 0 34.6634 0.16462 34.9564 0.457646C35.2494 0.750671 35.4141 1.1481 35.4141 1.5625V48.4375C35.4141 48.8519 35.2494 49.2493 34.9564 49.5424C34.6634 49.8354 34.266 50 33.8516 50Z" fill="#42A5F5"/>
<path d="M46.3542 50H3.64583C1.63542 50 0 48.3646 0 46.3542V3.64583C0 1.63542 1.63542 0 3.64583 0H46.3542C48.3646 0 50 1.63542 50 3.64583V46.3542C50 48.3646 48.3646 50 46.3542 50ZM3.64583 3.125C3.5077 3.125 3.37522 3.17987 3.27755 3.27755C3.17987 3.37522 3.125 3.5077 3.125 3.64583V46.3542C3.125 46.6417 3.35833 46.875 3.64583 46.875H46.3542C46.4923 46.875 46.6248 46.8201 46.7225 46.7225C46.8201 46.6248 46.875 46.4923 46.875 46.3542V3.64583C46.875 3.5077 46.8201 3.37522 46.7225 3.27755C46.6248 3.17987 46.4923 3.125 46.3542 3.125H3.64583Z" fill="#42A5F5"/>
</g>
<defs>
<clipPath id="clip0_408_116">
<rect width="50" height="50" fill="white"/>
</clipPath>
</defs>
</svg>
