<svg width="50" height="50" viewBox="0 0 50 50" fill="none" xmlns="http://www.w3.org/2000/svg">
<path d="M42.1922 47.1598H7.99219V2.83984H42.1922V47.1598Z" fill="#F4F4F4"/>
<path d="M4.74219 6.07031H7.98219V43.9203H4.74219V6.07031Z" fill="#E5E5E5"/>
<path d="M1.5 8.76953H4.74V41.2195H1.5V8.76953Z" fill="#CCCACA"/>
<path d="M13.3594 36.3594H17.0994V43.1694H13.3594V36.3594Z" fill="#FA4968"/>
<path d="M19.9297 33.8398H23.6697V43.1698H19.9297V33.8398Z" fill="#FFB95C"/>
<path d="M26.5 37.6797H30.24V43.1797H26.5V37.6797Z" fill="#6CD8D5"/>
<path d="M33.0703 31.5898H36.8103V43.1798H33.0703V31.5898Z" fill="#559AFF"/>
<path d="M25.2506 16.2002C25.2206 16.2002 25.1906 16.2002 25.1506 16.1902C25.0217 16.1621 24.9077 16.0873 24.8306 15.9802L21.1206 10.4402L14.9506 14.5902L14.3906 13.7602L20.9706 9.33022C21.0806 9.26022 21.2106 9.23022 21.3506 9.25022C21.4806 9.28022 21.5906 9.35022 21.6706 9.46022L25.3906 15.0002L33.8606 9.30022L34.4206 10.1302L25.5306 16.1102C25.4506 16.1702 25.3506 16.2002 25.2506 16.2002Z" fill="#616B77"/>
<path d="M22.9317 9.93095C23.0021 8.95595 22.2688 8.10848 21.2938 8.03807C20.3188 7.96767 19.4713 8.701 19.4009 9.676C19.3305 10.651 20.0638 11.4985 21.0388 11.5689C22.0138 11.6393 22.8613 10.906 22.9317 9.93095Z" fill="#FFB95C"/>
<path d="M27.3145 15.5677C27.3849 14.5927 26.6516 13.7452 25.6766 13.6748C24.7016 13.6044 23.8541 14.3377 23.7837 15.3127C23.7133 16.2877 24.4466 17.1352 25.4217 17.2056C26.3967 17.276 27.2441 16.5427 27.3145 15.5677Z" fill="#6CD8D5"/>
<path d="M35.9239 9.87041C35.9943 8.8954 35.261 8.04793 34.286 7.97753C33.311 7.90712 32.4635 8.64045 32.3931 9.61546C32.3227 10.5905 33.056 11.4379 34.031 11.5083C35.006 11.5787 35.8535 10.8454 35.9239 9.87041Z" fill="#559AFF"/>
<path d="M16.6427 13.9192C16.7131 12.9442 15.9797 12.0968 15.0047 12.0264C14.0297 11.956 13.1823 12.6893 13.1118 13.6643C13.0414 14.6393 13.7748 15.4868 14.7498 15.5572C15.7248 15.6276 16.5723 14.8942 16.6427 13.9192Z" fill="#FA4968"/>
<path d="M19.8563 20.5098H25.5562V21.5098H19.8563V20.5098ZM13.1562 20.5098H17.4062V21.5098H13.1562V20.5098ZM23.8663 22.7998H29.1362V23.7998H23.8663V22.7998ZM13.1562 22.7998H21.3363V23.7998H13.1562V22.7998ZM20.2262 25.0898H25.1562V26.0898H20.2262V25.0898ZM13.1562 25.0898H17.7463V26.0898H13.1562V25.0898ZM24.2062 27.3798H29.1362V28.3798H24.2062V27.3798ZM13.1562 27.3798H21.6963V28.3798H13.1562V27.3798ZM13.1562 29.6698H18.5863V30.6698H13.1562V29.6698Z" fill="#E5E5E5"/>
<path d="M44.7121 33.6068L42.8331 34.2928L40.7891 28.6958L42.6671 28.0098L44.7121 33.6068Z" fill="#425060"/>
<path d="M42.9613 40.0112L40.7812 32.3012L44.9513 30.7812L48.2513 38.0912C48.9313 39.5912 48.1913 41.3412 46.6513 41.9112C45.1013 42.4612 43.4113 41.5912 42.9613 40.0112Z" fill="#616B77"/>
<path d="M47.5915 23.3349C48.7987 18.8327 46.1275 14.2042 41.6253 12.997C37.1231 11.7898 32.4946 14.461 31.2874 18.9632C30.0802 23.4654 32.7514 28.0939 37.2536 29.3011C41.7558 30.5083 46.3843 27.8372 47.5915 23.3349Z" fill="#616B77"/>
<path d="M45.1505 22.681C45.9958 19.5284 44.1254 16.2874 40.9727 15.442C37.8201 14.5967 34.5791 16.4671 33.7337 19.6198C32.8884 22.7724 34.7588 26.0134 37.9115 26.8587C41.0641 27.7041 44.3051 25.8336 45.1505 22.681Z" fill="#8CF2ED"/>
<path fill-rule="evenodd" clip-rule="evenodd" d="M3 9.90721L3 6.64229C3 6.18977 3.16854 5.77907 3.44009 5.48184C3.71157 5.18453 4.08676 5 4.50008 5L11.4594 5C11.8727 5 12.2478 5.18453 12.5194 5.48184C12.7909 5.77907 12.9595 6.18985 12.9595 6.64229L12.9595 9.90721C12.9595 10.3597 12.7909 10.7704 12.5194 11.0678C12.2478 11.365 11.8727 11.5496 11.4594 11.5496L4.50008 11.5496C4.08683 11.5496 3.71164 11.3651 3.44009 11.0678C3.16854 10.7704 3 10.3597 3 9.90721ZM7.31563 17.7126L7.31563 15.4499C7.31563 15.0239 7.63108 14.6785 8.02022 14.6785C8.40937 14.6785 8.72481 15.0239 8.72481 15.4499L8.72482 17.7126L11.5907 17.7126L11.5907 14.1303C11.5907 13.7043 11.9062 13.3589 12.2953 13.3589C12.6845 13.3589 12.9999 13.7043 12.9999 14.1303L12.9999 18.484C12.9999 18.9101 12.6845 19.2555 12.2953 19.2555L3.74518 19.2555C3.35603 19.2555 3.04058 18.9101 3.04058 18.484L3.04058 14.1303C3.04058 13.7043 3.35603 13.3589 3.74518 13.3589C4.13432 13.3589 4.44977 13.7043 4.44977 14.1303L4.44977 17.7126L7.31563 17.7126ZM11.1387 27.9706C10.7542 28.0305 10.398 27.7377 10.3433 27.3167C10.2887 26.8956 10.5561 26.5057 10.9406 26.4458C11.1489 26.4129 11.3276 26.3193 11.4498 26.1886C11.5377 26.0946 11.5908 25.9812 11.5908 25.8655L11.5908 24.1422C11.5908 23.855 11.4494 23.5843 11.2217 23.3797C10.9563 23.1413 10.5804 22.9933 10.1579 22.9933C9.73541 22.9933 9.35937 23.1413 9.09409 23.3797C8.8663 23.5843 8.72489 23.855 8.72489 24.1422L8.72489 25.3082C8.72489 26.0771 8.38534 26.7666 7.8383 27.2581C7.32881 27.7159 6.63591 28 5.88277 28C5.12963 28 4.43674 27.7159 3.92724 27.2581C3.3802 26.7666 3.04066 26.0771 3.04066 25.3082L3.04066 23.585C3.04066 23.0774 3.22441 22.6135 3.53352 22.2455C3.82339 21.9004 4.22677 21.6427 4.68644 21.5241C5.06495 21.4276 5.44324 21.6852 5.53139 22.0996C5.61953 22.5141 5.3842 22.9282 5.00569 23.0247C4.82405 23.0716 4.67129 23.1656 4.56835 23.2882C4.49402 23.3767 4.44984 23.48 4.44984 23.585L4.44984 25.3083C4.44984 25.5955 4.59125 25.8662 4.81898 26.0709C5.08433 26.3093 5.46023 26.4572 5.88277 26.4572C6.30524 26.4572 6.68121 26.3093 6.94656 26.0709C7.17436 25.8662 7.31577 25.5955 7.31577 25.3083L7.31577 24.1424C7.31577 23.3734 7.65531 22.6839 8.20236 22.1925C8.71185 21.7347 9.40475 21.4506 10.1579 21.4506C10.911 21.4506 11.6038 21.7347 12.1134 22.1925C12.6605 22.6839 13 23.3734 13 24.1424L13 25.8657C13 26.414 12.7852 26.9114 12.4296 27.2917C12.1009 27.6428 11.6472 27.8904 11.1387 27.9706ZM4.40918 6.64229L4.40918 9.90721C4.40918 9.93375 4.41961 9.95844 4.43645 9.97688C4.44475 9.98617 4.45464 9.99358 4.46556 9.99869C4.47648 10.0038 4.48821 10.0065 4.50008 10.0067L11.4594 10.0067C11.4836 10.0067 11.5063 9.99524 11.523 9.97688C11.5398 9.95852 11.5502 9.93375 11.5502 9.90721L11.5502 6.64229C11.5502 6.61576 11.5398 6.59107 11.523 6.57271C11.5062 6.55435 11.4836 6.54286 11.4593 6.54286L4.50001 6.54286C4.47577 6.54286 4.45315 6.55435 4.43638 6.57271C4.41961 6.59107 4.40918 6.61576 4.40918 6.64229Z" fill="#515151"/>
</svg>
