<svg width="50" height="50" viewBox="0 0 50 50" fill="none" xmlns="http://www.w3.org/2000/svg">
<g clip-path="url(#clip0_408_267)">
<path d="M5.51572 10.207C5.42139 7.49805 7.53203 5 10.385 5H39.6187C42.4716 5 44.5822 7.49805 44.4879 10.207C44.3973 12.8093 44.5149 16.1802 45.3633 18.9287C46.2144 21.6857 47.6495 23.4284 50 23.6523V26.1914C47.6495 26.4153 46.2144 28.158 45.3633 30.915C44.5149 33.6636 44.3973 37.0345 44.4879 39.6368C44.5822 42.3457 42.4716 44.8438 39.6187 44.8438H10.385C7.53203 44.8438 5.42139 42.3457 5.51582 39.6368C5.60635 37.0345 5.48867 33.6636 4.64023 30.915C3.78926 28.158 2.35059 26.4153 0 26.1914V23.6523C2.35049 23.4284 3.78926 21.6857 4.64023 18.9287C5.48867 16.1802 5.60635 12.8093 5.51572 10.207Z" fill="url(#paint0_linear_408_267)"/>
<g filter="url(#filter0_d_408_267)">
<path d="M26.0861 35.5137C30.705 35.5137 33.4883 33.2521 33.4883 29.522C33.4883 26.7023 31.5023 24.661 28.5535 24.3379V24.2204C30.72 23.868 32.4201 21.8561 32.4201 19.6092C32.4201 16.4077 29.8926 14.3223 26.041 14.3223H17.375V35.5137H26.0861ZM20.7451 17.0098H25.2286C27.6659 17.0098 29.05 18.0965 29.05 20.0644C29.05 22.1645 27.4402 23.3393 24.5215 23.3393H20.7451V17.0098ZM20.7451 32.8263V25.8506H25.1984C28.388 25.8506 30.043 27.0254 30.043 29.3164C30.043 31.6073 28.4332 32.8263 25.394 32.8263H20.7451Z" fill="url(#paint1_linear_408_267)"/>
<path d="M26.0861 35.5137C30.705 35.5137 33.4883 33.2521 33.4883 29.522C33.4883 26.7023 31.5023 24.661 28.5535 24.3379V24.2204C30.72 23.868 32.4201 21.8561 32.4201 19.6092C32.4201 16.4077 29.8926 14.3223 26.041 14.3223H17.375V35.5137H26.0861ZM20.7451 17.0098H25.2286C27.6659 17.0098 29.05 18.0965 29.05 20.0644C29.05 22.1645 27.4402 23.3393 24.5215 23.3393H20.7451V17.0098ZM20.7451 32.8263V25.8506H25.1984C28.388 25.8506 30.043 27.0254 30.043 29.3164C30.043 31.6073 28.4332 32.8263 25.394 32.8263H20.7451Z" stroke="white"/>
</g>
</g>
<defs>
<filter id="filter0_d_408_267" x="0.875" y="1.82227" width="49.1094" height="54.1914" filterUnits="userSpaceOnUse" color-interpolation-filters="sRGB">
<feFlood flood-opacity="0" result="BackgroundImageFix"/>
<feColorMatrix in="SourceAlpha" type="matrix" values="0 0 0 0 0 0 0 0 0 0 0 0 0 0 0 0 0 0 127 0" result="hardAlpha"/>
<feOffset dy="4"/>
<feGaussianBlur stdDeviation="8"/>
<feColorMatrix type="matrix" values="0 0 0 0 0 0 0 0 0 0 0 0 0 0 0 0 0 0 0.15 0"/>
<feBlend mode="normal" in2="BackgroundImageFix" result="effect1_dropShadow_408_267"/>
<feBlend mode="normal" in="SourceGraphic" in2="effect1_dropShadow_408_267" result="shape"/>
</filter>
<linearGradient id="paint0_linear_408_267" x1="7.42959" y1="6.05449" x2="51.1211" y2="40.7368" gradientUnits="userSpaceOnUse">
<stop stop-color="#9013FE"/>
<stop offset="1" stop-color="#6610F2"/>
</linearGradient>
<linearGradient id="paint1_linear_408_267" x1="18.8991" y1="15.7171" x2="28.6653" y2="32.2339" gradientUnits="userSpaceOnUse">
<stop stop-color="white"/>
<stop offset="1" stop-color="#F1E5FC"/>
</linearGradient>
<clipPath id="clip0_408_267">
<rect width="50" height="50" fill="white"/>
</clipPath>
</defs>
</svg>
