<svg width="50" height="50" viewBox="0 0 50 50" fill="none" xmlns="http://www.w3.org/2000/svg">
<g clip-path="url(#clip0_408_279)">
<path d="M43.0386 27.5195C41.2906 27.5293 39.7769 27.9492 38.5074 28.5743C38.0386 27.6465 37.5699 26.8359 37.4919 26.2305C37.404 25.5274 37.2966 25.0976 37.404 24.2579C37.5113 23.4179 37.9996 22.2265 37.9996 22.1288C37.9897 22.041 37.8921 21.6113 36.8863 21.6015C35.8805 21.5917 35.0113 21.7968 34.9136 22.0605C34.816 22.3242 34.6207 22.9296 34.4937 23.5546C34.3179 24.4726 32.482 27.7245 31.4371 29.4335C31.0953 28.7695 30.8023 28.1835 30.7436 27.7147C30.6558 27.0117 30.5483 26.5819 30.6558 25.7421C30.7632 24.9022 31.2515 23.7109 31.2515 23.6132C31.2418 23.5253 31.1441 23.0956 30.1383 23.0859C29.1324 23.0761 28.2633 23.2812 28.1657 23.5449C28.068 23.8085 27.9606 24.4335 27.7458 25.039C27.5406 25.6445 25.0992 31.0742 24.4644 32.4902C24.1422 33.2128 23.8591 33.789 23.6539 34.1796C23.4488 34.5703 23.6441 34.2089 23.6246 34.248C23.4488 34.58 23.3511 34.7656 23.3511 34.7656V34.7754C23.2144 35.0196 23.0679 35.2538 22.9995 35.2538C22.9507 35.2538 22.853 34.5996 23.019 33.7012C23.3803 31.8163 24.2592 28.877 24.2496 28.7696C24.2496 28.7207 24.4155 28.2031 23.6831 27.9395C22.9702 27.6758 22.7164 28.1153 22.6577 28.1153C22.5991 28.1153 22.5503 28.2715 22.5503 28.2715C22.5503 28.2715 23.3413 24.9611 21.0366 24.9611C19.5913 24.9611 17.5991 26.5333 16.6128 27.9689C15.9878 28.3107 14.6596 29.0332 13.2534 29.8048C12.7163 30.0978 12.1596 30.4103 11.6323 30.6935L11.525 30.5761C8.732 27.5976 3.56598 25.4882 3.78083 21.4843C3.85895 20.0292 4.36676 16.1913 13.7028 11.5429C21.3493 7.73432 27.4723 8.77924 28.5367 11.1035C30.0504 14.4238 25.2652 20.5956 17.3161 21.4843C14.2887 21.8261 12.6968 20.6542 12.2966 20.2148C11.8766 19.7558 11.818 19.7363 11.6618 19.8242C11.4079 19.9609 11.5641 20.371 11.6618 20.6152C11.8962 21.2304 12.8727 22.3242 14.5329 22.871C15.9879 23.3495 19.5426 23.6132 23.8395 21.9531C28.654 20.0878 32.4137 14.912 31.3102 10.5859C30.1872 6.18158 22.8825 4.73627 15.9782 7.18744C11.8668 8.65228 7.41364 10.9374 4.21051 13.9355C0.40192 17.4902 -0.203548 20.5956 0.0503579 21.8847C0.939127 26.4843 7.27692 29.4824 9.81598 31.6992C9.68903 31.7674 9.57184 31.8358 9.46442 31.8945C8.19489 32.5194 3.36091 35.0488 2.14997 37.7245C0.78278 40.7518 2.36481 42.9296 3.4195 43.2226C6.68122 44.1308 10.0211 42.4999 11.8277 39.8144C13.6245 37.1288 13.4097 33.6425 12.5797 32.0507L12.5503 31.9921L13.5464 31.4062C14.191 31.0253 14.8257 30.6738 15.3823 30.3709C15.0699 31.2205 14.8452 32.2264 14.7281 33.6913C14.5914 35.4101 15.2945 37.6366 16.2222 38.5155C16.6324 38.8962 17.1207 38.9061 17.4234 38.9061C18.4976 38.9061 18.9859 38.0173 19.523 36.953C20.1871 35.6541 20.773 34.1502 20.773 34.1502C20.773 34.1502 20.0406 38.2225 22.0425 38.2225C22.775 38.2225 23.5074 37.2752 23.8394 36.787V36.7967C23.8394 36.7967 23.859 36.7674 23.898 36.6991C23.939 36.6385 23.9781 36.5766 24.0152 36.5136V36.4941C24.3082 35.9863 24.9625 34.8242 25.939 32.9003C27.1987 30.4199 28.4097 27.3144 28.4097 27.3144C28.4097 27.3144 28.5269 28.0761 28.8883 29.3261C29.103 30.0684 29.5717 30.8788 29.9331 31.6699C29.6401 32.08 29.4643 32.3145 29.4643 32.3145L29.4741 32.3243C29.2398 32.6368 28.976 32.9689 28.7027 33.3008C27.7066 34.4922 26.5152 35.8497 26.359 36.2404C26.1734 36.6993 26.2125 37.0411 26.5738 37.3146C26.8375 37.5099 27.3062 37.5489 27.8043 37.5099C28.7027 37.4512 29.3277 37.2267 29.6402 37.0899C30.1285 36.9141 30.6851 36.6504 31.2222 36.2598C32.1988 35.5372 32.7945 34.5119 32.7359 33.1447C32.7066 32.3927 32.4625 31.6505 32.1597 30.9474C32.2476 30.8204 32.3356 30.6934 32.4234 30.5568C33.9664 28.3008 35.1578 25.8204 35.1578 25.8204C35.1578 25.8204 35.275 26.5822 35.6363 27.8322C35.8217 28.4669 36.1929 29.1604 36.525 29.844C35.0797 31.0256 34.1715 32.3928 33.859 33.2913C33.2828 34.9514 33.732 35.7034 34.5816 35.8791C34.9624 35.9573 35.5093 35.7815 35.9194 35.6057C36.4272 35.4397 37.0425 35.1564 37.609 34.7366C38.5855 34.0139 39.523 33.008 39.4742 31.6506C39.4449 31.0256 39.2789 30.4104 39.0543 29.8245C40.2847 29.3166 41.8764 29.0237 43.898 29.2678C48.2437 29.7756 49.1031 32.4905 48.9372 33.6233C48.7712 34.7562 47.863 35.3811 47.5601 35.5764C47.2574 35.762 47.1597 35.8304 47.189 35.967C47.2281 36.1722 47.3648 36.1623 47.6285 36.1234C47.9898 36.0647 49.9136 35.1956 49.9918 33.1059C50.109 30.42 47.5601 27.4903 43.0386 27.5195ZM9.52301 38.8183C8.08747 40.3906 6.06598 40.9863 5.20661 40.4785C4.27887 39.9413 4.6401 37.6269 6.40778 35.957C7.482 34.9413 8.87848 34.0038 9.79645 33.4277C10.0015 33.3007 10.314 33.1153 10.6851 32.8906C10.7437 32.8516 10.7828 32.832 10.7828 32.832C10.8511 32.7929 10.9293 32.7441 11.0074 32.6953C11.6617 35.0781 11.0367 37.1679 9.52301 38.8183ZM20.0211 31.6796C19.523 32.9003 18.4683 36.0351 17.8336 35.8593C17.2866 35.7128 16.9547 33.3398 17.726 30.996C18.1167 29.8143 18.9467 28.4081 19.435 27.8612C20.2261 26.9823 21.0854 26.6893 21.3004 27.0506C21.5543 27.5195 20.3336 30.9179 20.0211 31.6796ZM28.6832 35.8203C28.4683 35.9278 28.273 36.0058 28.1851 35.9473C28.1168 35.9082 28.2729 35.7618 28.2729 35.7618C28.2729 35.7618 29.3569 34.5996 29.7866 34.0625C30.0307 33.7501 30.3237 33.3888 30.6362 32.9786V33.0957C30.6363 34.5019 29.2886 35.4394 28.6832 35.8203ZM35.3628 34.2968C35.2065 34.1796 35.2261 33.8183 35.7534 32.6855C35.9586 32.2363 36.4272 31.4843 37.2378 30.7714C37.3354 31.0644 37.3941 31.3475 37.3842 31.6113C37.3746 33.3691 36.1246 34.0234 35.3628 34.2968Z" fill="#CF649A"/>
</g>
<defs>
<clipPath id="clip0_408_279">
<rect width="50" height="50" fill="white"/>
</clipPath>
</defs>
</svg>
