<svg width="50" height="50" viewBox="0 0 50 50" fill="none" xmlns="http://www.w3.org/2000/svg">
<path d="M1 42.7452C1 44.1834 2.16494 45.3484 3.60321 45.3484H38.7466C40.1849 45.3484 41.3498 44.1834 41.3498 42.7452V11.7539H1V42.7452Z" fill="#D7E6EF"/>
<path d="M38.7466 5H3.60321C2.16494 5 1 6.16494 1 7.60321V11.7553H41.3498V7.60321C41.3498 6.16494 40.1849 5 38.7466 5Z" fill="#44394A"/>
<path d="M4.90625 15.6602H37.4464V32.3272H4.90625V15.6602Z" fill="#5F6FE7"/>
<path d="M7.33286 9.67939C8.05171 9.67939 8.63446 9.09664 8.63446 8.37778C8.63446 7.65892 8.05171 7.07617 7.33286 7.07617C6.614 7.07617 6.03125 7.65892 6.03125 8.37778C6.03125 9.09664 6.614 9.67939 7.33286 9.67939Z" fill="#F0A696"/>
<path d="M12.0594 9.67939C12.7783 9.67939 13.361 9.09664 13.361 8.37778C13.361 7.65892 12.7783 7.07617 12.0594 7.07617C11.3406 7.07617 10.7578 7.65892 10.7578 8.37778C10.7578 9.09664 11.3406 9.67939 12.0594 9.67939Z" fill="#F0A696"/>
<path d="M16.786 9.67939C17.5048 9.67939 18.0876 9.09664 18.0876 8.37778C18.0876 7.65892 17.5048 7.07617 16.786 7.07617C16.0671 7.07617 15.4844 7.65892 15.4844 8.37778C15.4844 9.09664 16.0671 9.67939 16.786 9.67939Z" fill="#F0A696"/>
<path d="M7.50946 41.4447C8.94718 41.4447 10.1127 40.2792 10.1127 38.8415C10.1127 37.4038 8.94718 36.2383 7.50946 36.2383C6.07175 36.2383 4.90625 37.4038 4.90625 38.8415C4.90625 40.2792 6.07175 41.4447 7.50946 41.4447Z" fill="#2C92BF"/>
<path d="M19.5962 38.1922H12.6196C12.2616 38.1922 11.9688 37.8994 11.9688 37.5414C11.9688 37.1835 12.2616 36.8906 12.6196 36.8906H19.5962C19.9541 36.8906 20.247 37.1835 20.247 37.5414C20.247 37.8994 19.9541 38.1922 19.5962 38.1922ZM16.7782 40.7954H12.6196C12.2616 40.7954 11.9688 40.5026 11.9688 40.1446C11.9688 39.7867 12.2616 39.4938 12.6196 39.4938H16.7782C17.1361 39.4938 17.429 39.7867 17.429 40.1446C17.429 40.5026 17.1361 40.7954 16.7782 40.7954Z" fill="#A4C0D8"/>
<path d="M25.3532 41.4447C26.7909 41.4447 27.9564 40.2792 27.9564 38.8415C27.9564 37.4038 26.7909 36.2383 25.3532 36.2383C23.9155 36.2383 22.75 37.4038 22.75 38.8415C22.75 40.2792 23.9155 41.4447 25.3532 41.4447Z" fill="#EE6A51"/>
<path d="M8.55473 36.459C8.72909 36.8551 8.8019 37.2885 8.76658 37.7199C8.73125 38.1512 8.58889 38.567 8.3524 38.9295C8.11591 39.292 7.79274 39.5898 7.41217 39.7959C7.03159 40.002 6.60561 40.11 6.17279 40.11C5.80184 40.11 5.44389 40.0254 5.125 39.8887C5.36586 40.435 5.78717 40.8819 6.31831 41.1544C6.84945 41.427 7.45815 41.5088 8.04239 41.386C8.62663 41.2632 9.15092 40.9433 9.52737 40.48C9.90383 40.0166 10.1096 39.4379 10.1102 38.8409C10.1099 38.3358 9.96277 37.8416 9.68659 37.4187C9.41041 36.9958 9.01714 36.6623 8.55473 36.459Z" fill="#1F81A3"/>
<path d="M26.3985 36.459C26.5728 36.8551 26.6457 37.2885 26.6103 37.7199C26.575 38.1512 26.4326 38.567 26.1962 38.9295C25.9597 39.292 25.6365 39.5898 25.2559 39.7959C24.8753 40.002 24.4494 40.11 24.0165 40.11C23.6456 40.11 23.2876 40.0254 22.9688 39.8887C23.1391 40.2762 23.4013 40.6164 23.7328 40.8796C24.0642 41.1429 24.4549 41.3213 24.8709 41.3994C25.287 41.4776 25.7158 41.4531 26.1202 41.328C26.5246 41.203 26.8924 40.9812 27.1917 40.6819C27.491 40.3826 27.7128 40.0148 27.8378 39.6104C27.9628 39.206 27.9873 38.7772 27.9092 38.3612C27.8311 37.9452 27.6526 37.5545 27.3894 37.223C27.1261 36.8915 26.786 36.6293 26.3985 36.459Z" fill="#E1533B"/>
<path d="M37.4477 38.1922H30.4711C30.1132 38.1922 29.8203 37.8994 29.8203 37.5414C29.8203 37.1835 30.1132 36.8906 30.4711 36.8906H37.4477C37.8057 36.8906 38.0985 37.1835 38.0985 37.5414C38.0985 37.8994 37.8057 38.1922 37.4477 38.1922ZM34.6297 40.7954H30.4711C30.1132 40.7954 29.8203 40.5026 29.8203 40.1446C29.8203 39.7867 30.1132 39.4938 30.4711 39.4938H34.6297C34.9877 39.4938 35.2806 39.7867 35.2806 40.1446C35.2806 40.5026 34.9877 40.7954 34.6297 40.7954Z" fill="#A4C0D8"/>
<path d="M29.2611 32.3276C26.775 30.4272 26.3064 23.75 23.0133 23.75C19.7268 23.75 19.2517 30.4272 16.7656 32.3276H29.2611Z" fill="#F8CE01"/>
<path d="M27.798 30.3752H26.8609C23.4962 30.3752 21.29 26.7372 22.9691 23.8151C22.9821 23.7956 22.9951 23.7695 23.0081 23.75C19.7346 23.7695 19.2595 30.4272 16.7734 32.3276H29.2624C28.6831 31.885 28.2146 31.1887 27.798 30.3752Z" fill="#F4B601"/>
<path d="M31.4925 24.0494C33.0416 24.0494 34.2974 22.7936 34.2974 21.2444C34.2974 19.6953 33.0416 18.4395 31.4925 18.4395C29.9433 18.4395 28.6875 19.6953 28.6875 21.2444C28.6875 22.7936 29.9433 24.0494 31.4925 24.0494Z" fill="#D7E6EF"/>
<path d="M32.6979 18.7246C32.8736 19.0956 32.9842 19.4991 32.9842 19.9351C32.9842 20.679 32.6887 21.3925 32.1627 21.9185C31.6366 22.4445 30.9232 22.7401 30.1792 22.7401C29.7432 22.7401 29.3332 22.6294 28.9688 22.4537C29.4243 23.3909 30.3745 24.0482 31.4874 24.0482C32.2313 24.0482 32.9447 23.7527 33.4708 23.2266C33.9968 22.7006 34.2923 21.9871 34.2923 21.2432C34.2923 20.1303 33.635 19.1802 32.6979 18.7246Z" fill="#A4C0D8"/>
<path d="M7.7494 7.14844C7.79496 7.2786 7.8275 7.42177 7.8275 7.56495C7.8275 8.28084 7.24177 8.86656 6.52589 8.86656C6.3762 8.86656 6.23954 8.83402 6.10938 8.78846C6.28509 9.3026 6.76669 9.67355 7.33288 9.67355C8.04877 9.67355 8.63449 9.08783 8.63449 8.37195C8.63449 7.80575 8.26353 7.32415 7.7494 7.14844ZM12.4742 7.14844C12.5198 7.2786 12.5523 7.42177 12.5523 7.56495C12.5523 8.28084 11.9666 8.86656 11.2507 8.86656C11.101 8.86656 10.9644 8.83402 10.8342 8.78846C11.0099 9.3026 11.4915 9.67355 12.0577 9.67355C12.7736 9.67355 13.3593 9.08783 13.3593 8.37195C13.3593 7.80575 12.9884 7.32415 12.4742 7.14844ZM17.1991 7.14844C17.2446 7.2786 17.2772 7.42177 17.2772 7.56495C17.2772 8.28084 16.6914 8.86656 15.9756 8.86656C15.8259 8.86656 15.6892 8.83402 15.559 8.78846C15.7348 9.3026 16.2164 9.67355 16.7825 9.67355C17.4984 9.67355 18.0842 9.08783 18.0842 8.37195C18.0842 7.80575 17.7132 7.32415 17.1991 7.14844Z" fill="#E08C7E"/>
<path d="M23.1808 32.3268C19.5428 29.5479 18.853 19.7793 14.0435 19.7793C9.23409 19.7793 8.54424 29.5479 4.90625 32.3268H23.1808Z" fill="#F8CE01"/>
<path d="M21.5421 30.3744H20.1819C14.8193 30.3744 11.5327 24.3284 14.6045 19.9355C14.624 19.903 14.6501 19.8769 14.6696 19.8444C14.4679 19.8053 14.2661 19.7793 14.0513 19.7793C9.2419 19.7793 8.55205 29.5479 4.91406 32.3268H23.1886C22.5573 31.8517 22.0237 31.1684 21.5421 30.3744Z" fill="#F4B601"/>
<g clip-path="url(#clip0_408_291)">
<path d="M35.7921 39.76C40.4149 39.76 44.1623 36.0125 44.1623 31.3898C44.1623 26.767 40.4149 23.0195 35.7921 23.0195C31.1694 23.0195 27.4219 26.767 27.4219 31.3898C27.4219 36.0125 31.1694 39.76 35.7921 39.76Z" fill="#C3DDE5"/>
<path fill-rule="evenodd" clip-rule="evenodd" d="M32.1797 38.9285C33.2971 39.4577 34.5184 39.7314 35.7548 39.7297C39.8506 39.7297 43.2653 36.7797 43.9836 32.8891L41.8265 30.7322C41.6335 30.5397 41.3732 30.4316 41.1012 30.4316C40.8292 30.4316 40.5689 30.5397 40.376 30.7322L32.1797 38.9285Z" fill="#28A876"/>
<path fill-rule="evenodd" clip-rule="evenodd" d="M27.9297 34.3415C29.1315 37.4906 32.1812 39.73 35.7517 39.73C38.2273 39.73 40.4542 38.6519 41.9884 36.9401L34.7824 29.7346C34.4846 29.4368 34.0807 29.2695 33.6596 29.2695C33.2385 29.2695 32.8347 29.4368 32.5369 29.7346L27.9297 34.3415Z" fill="#2ABD8B"/>
<path d="M37.84 29.9672C38.6103 29.9672 39.2347 29.3427 39.2347 28.5724C39.2347 27.8022 38.6103 27.1777 37.84 27.1777C37.0697 27.1777 36.4453 27.8022 36.4453 28.5724C36.4453 29.3427 37.0697 29.9672 37.84 29.9672Z" fill="#F2FFF1"/>
<path fill-rule="evenodd" clip-rule="evenodd" d="M41.0326 37.3013L43.3492 39.6181C43.5307 39.7994 43.8252 39.7994 44.007 39.6181C44.1883 39.4368 44.1881 39.1421 44.0068 38.9605L41.6899 36.6439C41.647 36.5995 41.5957 36.5641 41.539 36.5397C41.4823 36.5153 41.4213 36.5025 41.3596 36.502C41.2978 36.5014 41.2366 36.5132 41.1795 36.5366C41.1224 36.5599 41.0704 36.5945 41.0268 36.6381C40.9831 36.6818 40.9486 36.7337 40.9252 36.7908C40.9019 36.848 40.8901 36.9092 40.8906 36.9709C40.8912 37.0326 40.904 37.0936 40.9284 37.1504C40.9527 37.2071 40.9882 37.2584 41.0326 37.3013Z" fill="#414648"/>
<path fill-rule="evenodd" clip-rule="evenodd" d="M43.3263 38.9367C43.1915 39.0714 43.0846 39.2314 43.0116 39.4074C42.9387 39.5834 42.9012 39.7721 42.9012 39.9626C42.9012 40.1532 42.9387 40.3419 43.0116 40.5179C43.0846 40.6939 43.1915 40.8539 43.3263 40.9886L47.2217 44.884C47.4245 45.0872 47.6831 45.2256 47.9647 45.2817C48.2462 45.3378 48.5381 45.3092 48.8033 45.1993C49.0686 45.0894 49.2952 44.9033 49.4546 44.6645C49.614 44.4258 49.699 44.1451 49.6987 43.858C49.699 43.6674 49.6616 43.4786 49.5887 43.3025C49.5158 43.1264 49.4087 42.9665 49.2738 42.8319L45.3784 38.9365C45.2436 38.8017 45.0836 38.6949 44.9076 38.622C44.7315 38.5491 44.5428 38.5115 44.3523 38.5116C44.1617 38.5116 43.973 38.5491 43.797 38.6221C43.6209 38.695 43.461 38.8019 43.3263 38.9367ZM35.792 23.0195C31.1725 23.0195 27.4219 26.7702 27.4219 31.3897C27.4219 36.0092 31.1723 39.7598 35.792 39.7598C40.4118 39.7598 44.1622 36.0092 44.1622 31.3897C44.1622 26.7702 40.4116 23.0195 35.792 23.0195ZM35.792 23.9493C39.8983 23.9493 43.2324 27.2834 43.2324 31.3897C43.2324 35.496 39.8983 38.83 35.792 38.83C31.6857 38.83 28.3517 35.496 28.3517 31.3897C28.3517 27.2834 31.686 23.9493 35.792 23.9493Z" fill="#5E696F"/>
<path fill-rule="evenodd" clip-rule="evenodd" d="M29.6953 33.7164C29.7639 33.894 29.8401 34.0678 29.9236 34.2375C30.0052 34.4036 30.1493 34.5304 30.3244 34.5901C30.4995 34.6498 30.6911 34.6376 30.8571 34.556C31.0231 34.4744 31.15 34.3303 31.2097 34.1552C31.2694 33.9801 31.2571 33.7885 31.1756 33.6225C31.1099 33.4889 31.0501 33.3524 30.9964 33.2136C30.9633 33.1282 30.9138 33.0501 30.8506 32.9838C30.7874 32.9175 30.7118 32.8643 30.6281 32.8272C30.5443 32.7902 30.4541 32.77 30.3625 32.7678C30.271 32.7656 30.1799 32.7815 30.0944 32.8145C30.009 32.8475 29.9309 32.897 29.8646 32.9602C29.7983 33.0234 29.7452 33.099 29.7081 33.1828C29.671 33.2665 29.6508 33.3567 29.6486 33.4483C29.6464 33.5399 29.6623 33.631 29.6953 33.7164Z" fill="#51D7AA"/>
<path fill-rule="evenodd" clip-rule="evenodd" d="M35.7676 24.8633C32.1749 24.8633 29.2578 27.7803 29.2578 31.3731C29.2578 31.7578 29.5702 32.0705 29.9554 32.0705C30.3401 32.0705 30.6528 31.7578 30.6528 31.3731C30.6528 28.5502 32.9447 26.2585 35.7676 26.2585C36.1524 26.2585 36.465 25.9456 36.465 25.5609C36.465 25.1757 36.1524 24.8635 35.7676 24.8635V24.8633Z" fill="#E1EEF2"/>
</g>
<defs>
<clipPath id="clip0_408_291">
<rect width="22.3154" height="22.3154" fill="white" transform="translate(27.3828 22.9922)"/>
</clipPath>
</defs>
</svg>
