<svg width="50" height="50" viewBox="0 0 50 50" fill="none" xmlns="http://www.w3.org/2000/svg">
<g clip-path="url(#clip0_408_105)">
<path d="M47.7277 22.4206H15.959C14.8675 22.4206 13.9826 21.5358 13.9826 20.4443V16.0619C13.9826 14.9705 14.8674 14.0856 15.959 14.0856H47.7277C48.8192 14.0856 49.704 14.9704 49.704 16.0619V20.4443C49.7039 21.5357 48.8192 22.4206 47.7277 22.4206ZM5.05968 13.4902C4.57948 13.4897 4.10197 13.5619 3.64338 13.7043C3.34763 13.7964 3.06161 13.9172 2.78943 14.065C2.38606 14.2843 2.0164 14.5605 1.69186 14.8852C1.3672 15.2098 1.09096 15.5795 0.871666 15.9828C0.648526 16.3936 0.487432 16.8352 0.393624 17.2932C0.329131 17.609 0.296717 17.9306 0.296876 18.253C0.296876 18.5819 0.330215 18.9028 0.393624 19.2129C0.448592 19.4814 0.530147 19.7397 0.628266 19.9897C0.700115 20.1726 0.778716 20.3522 0.871771 20.5233C1.02507 20.8041 1.20622 21.0688 1.41248 21.3134C1.79689 21.7721 2.26396 22.1546 2.78943 22.4411C2.96056 22.534 3.14002 22.6127 3.32307 22.6846C3.57301 22.7826 3.83129 22.8642 4.0998 22.9192C4.41568 22.9837 4.73728 23.0161 5.05968 23.016C7.69013 23.016 9.82248 20.8836 9.82248 18.2531C9.82248 15.6226 7.69013 13.4902 5.05968 13.4902Z" fill="#44C4A1"/>
<path d="M5.05968 36.51C7.6901 36.51 9.82248 34.3776 9.82248 31.7472C9.82248 29.1168 7.6901 26.9844 5.05968 26.9844C2.42925 26.9844 0.296875 29.1168 0.296875 31.7472C0.296875 34.3776 2.42925 36.51 5.05968 36.51Z" fill="#E56353"/>
<path d="M47.7295 35.9131H15.9607C14.8692 35.9131 13.9844 35.0283 13.9844 33.9368V29.5544C13.9844 28.463 14.8691 27.5781 15.9607 27.5781H47.7295C48.8209 27.5781 49.7058 28.4629 49.7058 29.5544V33.9368C49.7057 35.0282 48.8209 35.9131 47.7295 35.9131Z" fill="#E56353"/>
<path d="M5.05968 50.0002C7.6901 50.0002 9.82248 47.8678 9.82248 45.2374C9.82248 42.607 7.6901 40.4746 5.05968 40.4746C2.42925 40.4746 0.296875 42.607 0.296875 45.2374C0.296875 47.8678 2.42925 50.0002 5.05968 50.0002Z" fill="#27A2DB"/>
<path d="M47.7295 49.4053H15.9607C14.8692 49.4053 13.9844 48.5205 13.9844 47.429V43.0466C13.9844 41.9552 14.8691 41.0703 15.9607 41.0703H47.7295C48.8209 41.0703 49.7058 41.9551 49.7058 43.0466V47.429C49.7057 48.5204 48.8209 49.4053 47.7295 49.4053Z" fill="#27A2DB"/>
<path d="M5.05968 9.52561C7.6901 9.52561 9.82248 7.39323 9.82248 4.7628C9.82248 2.13238 7.6901 0 5.05968 0C2.42925 0 0.296875 2.13238 0.296875 4.7628C0.296875 7.39323 2.42925 9.52561 5.05968 9.52561Z" fill="#FCD462"/>
<path d="M47.7295 8.92874H15.9607C14.8692 8.92874 13.9844 8.04397 13.9844 6.95242V2.57007C13.9844 1.47862 14.8691 0.59375 15.9607 0.59375H47.7295C48.8209 0.59375 49.7058 1.47851 49.7058 2.57007V6.95242C49.7057 8.04387 48.8209 8.92874 47.7295 8.92874Z" fill="#FCD462"/>
</g>
<defs>
<clipPath id="clip0_408_105">
<rect width="50" height="50" fill="white"/>
</clipPath>
</defs>
</svg>
