<svg width="50" height="50" viewBox="0 0 50 50" fill="none" xmlns="http://www.w3.org/2000/svg">
<g clip-path="url(#clip0_408_190)">
<path d="M13.3274 25.5034C12.1336 27.2409 11.1274 36.2159 9.13781 36.2159C7.14197 36.2159 9.43156 30.5201 10.0649 28.5555C2.58364 36.9013 -2.51636 32.3534 1.34822 21.7326C4.35864 13.4596 11.9357 5.49298 16.6878 12.6367C17.3336 13.5784 17.0795 15.4263 15.9024 15.4263C14.5482 15.4263 14.4711 12.3096 12.3024 12.3096C8.06489 12.3096 1.63364 25.2409 3.38572 29.1951C4.70239 32.2055 10.192 26.0055 11.1753 23.9263C12.0316 21.5596 12.3586 18.6784 14.0836 19.2596C15.7149 19.8138 13.8816 23.8805 13.3274 25.5034ZM29.8316 28.543C26.9899 32.3596 21.3586 35.168 22.6982 29.1305C20.6336 32.8013 15.2524 34.2284 15.2524 30.3409C15.7003 27.4826 16.9191 24.6867 18.1711 22.0784C18.717 20.9055 19.6774 20.7596 20.3295 21.2013C21.6066 22.0742 19.2545 24.0055 18.2086 27.7596C18.067 28.268 17.8566 29.1846 18.1149 29.6451C18.4211 30.1867 19.6316 29.7096 20.1711 29.3201C23.3253 27.0471 24.1128 22.3826 25.0274 21.3055C25.4357 20.8242 26.1441 20.8659 26.4941 21.3221C27.1107 22.1242 26.6336 22.9742 25.5649 25.3992C25.0191 26.6346 23.592 30.1576 24.9357 30.1576C26.4378 30.1576 28.7795 27.8659 29.7003 26.4367L29.8316 28.543Z" fill="#CF4547"/>
<path d="M30.2349 27.7674C28.4641 32.1216 32.5599 29.0466 35.6016 25.9695C36.1328 25.4153 37.1057 25.9883 36.5182 27.2883C36.2912 27.7841 32.0328 32.6341 29.2016 32.6341C25.3516 32.6341 28.4432 26.1612 29.7641 22.8383C33.2849 14.1508 33.9703 10.4737 35.9099 12.0008C36.9432 12.8153 35.8891 13.2028 30.2349 27.7674Z" fill="#CF4547"/>
<path d="M48.7795 24.959C50.2899 23.9278 50.3316 26.2569 49.2899 27.0819C46.7462 29.3361 46.1316 30.034 44.717 31.1049C42.317 32.9174 38.742 33.3903 38.742 31.0194C38.792 28.8819 43.2191 25.3403 43.2191 23.9653C43.2191 22.8653 39.1066 23.0132 34.7254 34.5319C33.7524 37.1069 32.7233 41.3444 30.7129 39.8965C29.567 39.059 31.6691 35.6507 33.9962 30.3632C36.1649 25.4611 37.1087 20.0049 38.8316 21.759C39.2483 22.184 38.9649 23.5153 38.8066 23.9049C43.1816 19.1278 46.9754 21.0694 45.5524 24.2694C44.7441 26.0924 43.2316 27.6903 41.8233 29.3549C41.1004 30.2132 41.7129 30.5924 42.642 30.0611C43.8795 29.3528 47.5212 26.084 48.7795 24.959Z" fill="#CF4547"/>
<path d="M13.5095 25H10.5241C9.13239 26.9937 6.25947 30.0042 4.52406 30.0042C4.03447 30.0042 3.63447 29.7646 3.38656 29.1937C2.95739 28.2271 3.01989 26.7208 3.41781 25H0.392806C-0.663444 29.9083 0.624056 32.8771 3.25531 32.8771C5.01989 32.8771 7.39072 31.5417 10.0636 28.5583C9.42822 30.5208 7.14072 36.2188 9.13656 36.2188C11.1261 36.2188 12.1324 27.2437 13.3261 25.5063C13.3782 25.3542 13.4407 25.1854 13.5095 25ZM25.7407 25H23.3782C22.6761 26.5479 21.7032 28.2167 20.172 29.3208C19.8053 29.5854 19.1324 29.8896 18.6407 29.8896C18.4074 29.8896 18.2136 29.8208 18.1157 29.6458C17.8574 29.1854 18.0678 28.2687 18.2095 27.7604C18.5032 26.7 18.9032 25.7854 19.2949 25H16.8491C16.1303 26.7333 15.5345 28.525 15.2511 30.3417C15.2511 31.9583 16.1803 32.6542 17.4157 32.6542C19.1511 32.6542 21.4907 31.275 22.697 29.1312C22.1366 31.6604 22.7991 32.6375 23.9678 32.6375C24.9011 32.6375 26.1553 32.0146 27.3657 31.0646C27.2845 30.425 27.3866 29.6375 27.5907 28.7833C26.6866 29.5583 25.7011 30.1563 24.9345 30.1563C23.5886 30.1563 25.0178 26.6333 25.5636 25.3979C25.6241 25.2604 25.6845 25.1271 25.7407 25Z" fill="#CF4547"/>
<path d="M31.3204 25H28.8808C28.3871 26.2271 27.8829 27.5708 27.5892 28.7854C27.3829 29.6396 27.2829 30.4271 27.3642 31.0667C27.485 32.0187 28.0121 32.6375 29.2017 32.6375C30.7558 32.6375 32.7412 31.175 34.2537 29.7729C34.8142 28.4375 35.2912 27.0854 35.7246 25.8687C35.6808 25.8979 35.6412 25.9312 35.6017 25.9708C33.6454 27.9521 31.2517 29.9312 30.2662 29.9312C29.7204 29.9312 29.6037 29.3229 30.235 27.7708C30.6183 26.7812 30.9787 25.8604 31.3204 25Z" fill="#CF4547"/>
<path d="M40.0962 25H36.0358C35.9337 25.2792 35.8316 25.5688 35.7254 25.8667C35.2899 27.0833 34.8129 28.4354 34.2524 29.7708C34.1691 29.9688 34.0837 30.1667 33.9962 30.3646C31.6691 35.6542 29.567 39.0604 30.7129 39.8979C30.9941 40.1 31.2566 40.1917 31.5024 40.1917C33.0108 40.1917 33.8899 36.7479 34.7254 34.5333C36.6837 29.3854 38.5879 26.5083 40.0962 25ZM49.8983 25H48.7358C47.4399 26.1583 43.8629 29.3625 42.6399 30.0604C42.3462 30.2292 42.0858 30.3063 41.8858 30.3063C41.4566 30.3063 41.3254 29.9437 41.8212 29.3562C43.0379 27.9187 44.3337 26.5292 45.1858 25H42.7733C41.6483 26.6792 38.7795 29.3042 38.7399 31.0229C38.7399 32.1542 39.5545 32.6375 40.667 32.6375C41.8858 32.6375 43.4629 32.0563 44.717 31.1083C46.1337 30.0396 46.7462 29.3396 49.2899 27.0854C49.717 26.7479 49.9608 26.1583 49.9983 25.6479V25.3896C49.9858 25.2438 49.9545 25.1083 49.8983 25Z" fill="#CF4547"/>
</g>
<defs>
<clipPath id="clip0_408_190">
<rect width="50" height="50" fill="white"/>
</clipPath>
</defs>
</svg>
