<svg  viewBox="0 0 80 80"  xmlns="http://www.w3.org/2000/svg">
<g clip-path="url(#clip0_3_576)">
<path d="M12.628 54.4602V21.7625C12.628 20.1141 13.9655 18.7766 15.6139 18.7766H46.8623M62.6483 53.5844V32.1516M1.66422 78.8282L18.2936 74.9377H37.5677L58.7166 70.2841C59.5996 70.1098 60.4324 69.7401 61.154 69.2021C61.8756 68.6642 62.4677 67.9715 62.8869 67.175L68.8077 55.9257C69.5747 54.4682 69.1066 52.6665 67.727 51.7668C66.3117 50.8438 64.4222 51.1841 63.4178 52.5429L56.0514 62.5094L38.1741 60.3552L45.977 54.56C47.2828 53.5902 47.5755 51.7554 46.6362 50.4275C46.2331 49.8576 45.6435 49.4465 44.9693 49.2652C44.2952 49.0839 43.5788 49.1439 42.9442 49.4347L30.6344 55.0775C30.6344 55.0775 25.4498 54.9433 19.7536 59.8168L1.66406 60.2475"  stroke-width="2" stroke-miterlimit="10" stroke-linecap="round" stroke-linejoin="round"/>
<path d="M44.9796 6.90234C48.5184 3.36359 53.4041 1.17188 58.7923 1.17188C69.5685 1.17188 78.3355 9.93891 78.3355 20.7152C78.3355 24.1452 77.4473 27.3717 75.8888 30.1767M32.7598 18.7767H42.5177V35.1864H32.7598V18.7767Z"  stroke-width="2" stroke-miterlimit="10" stroke-linecap="round" stroke-linejoin="round"/>
<path d="M61.5649 8.86813C66.9304 10.1105 70.9296 14.9195 70.9296 20.6628C70.9296 27.3491 65.5093 32.7692 58.8232 32.7692C52.1371 32.7692 46.7168 27.3489 46.7168 20.6628C46.7168 14.9181 50.718 10.1078 56.0859 8.86719"  stroke-width="2" stroke-miterlimit="10" stroke-linecap="round" stroke-linejoin="round"/>
<path d="M61.1436 15.5152C61.1436 15.5152 59.8222 14.2963 57.7852 14.9099C55.9148 15.4734 55.4503 18.0324 56.7214 19.0293C57.4512 19.6016 58.5492 20.0723 60.0292 20.5954C63.3416 21.7662 62.117 26.4374 58.7478 26.4598C57.433 26.4685 56.8183 26.3851 55.6633 25.6295M58.748 28.1655V26.4596M58.748 14.7418V13.1612M50.4894 6.90289H44.9791V1.39258M38.1734 60.3557L34.9961 62.9166"  stroke-width="2" stroke-miterlimit="10" stroke-linecap="round" stroke-linejoin="round"/>
</g>
<defs>
<clipPath id="clip0_3_576">
<rect width="80" height="80" fill="white"/>
</clipPath>
</defs>
</svg>
