<svg  viewBox="0 0 88 80" xmlns="http://www.w3.org/2000/svg">
<g filter="url(#filter0_d_3_567)">
<path d="M75.4066 53.1689V64.4566C75.4066 67.2272 73.1605 69.4733 70.3898 69.4733H10.1886C7.41797 69.4733 5.17188 67.2272 5.17188 64.4566V29.3392C5.17188 26.5686 7.41797 24.3225 10.1886 24.3225H70.3898C73.1605 24.3225 75.4066 26.5686 75.4066 29.3392V48.152"  stroke-width="2" stroke-miterlimit="10" stroke-linecap="round" stroke-linejoin="round"/>
<path d="M10.0898 19.3055C10.9127 18.3101 12.0888 17.6717 13.3719 17.5241L73.1689 10.5605C75.9209 10.24 78.4119 12.2111 78.7323 14.9633L82.7945 49.8449C83.115 52.5969 81.1439 55.0879 78.3917 55.4083L75.4072 55.7558M12.6975 54.4229H22.7311M12.6975 60.6939H37.7813M27.7478 54.4229H37.7813M42.7981 54.4229H52.8316M57.8484 54.4229H67.8819M17.7142 43.1352H20.2227M22.7311 48.1519H15.2059C13.8206 48.1519 12.6975 47.0289 12.6975 45.6435V40.6268C12.6975 39.2414 13.8205 38.1183 15.2059 38.1183H22.7311C24.1164 38.1183 25.2395 39.2413 25.2395 40.6268V45.6435C25.2394 47.0289 24.1164 48.1519 22.7311 48.1519Z"  stroke-width="2" stroke-miterlimit="10" stroke-linecap="round" stroke-linejoin="round"/>
<path d="M64.0403 44.3894C64.8862 42.6891 65.3739 40.7767 65.3739 38.7455C65.3739 36.7142 64.8862 34.8017 64.0403 33.1016M59.5425 42.1245C60.0514 41.105 60.3572 39.9647 60.3572 38.7455C60.3572 37.5263 60.0514 36.3859 59.5425 35.3664M55.0625 39.8686C55.2348 39.5303 55.3403 39.1523 55.3403 38.7455C55.3403 38.3384 55.2348 37.9606 55.0625 37.6223"  stroke-width="2" stroke-miterlimit="10" stroke-linecap="round" stroke-linejoin="round"/>
</g>
<defs>
<filter id="filter0_d_3_567" x="0" y="0" width="88" height="88" filterUnits="userSpaceOnUse" color-interpolation-filters="sRGB">
<feFlood flood-opacity="0" result="BackgroundImageFix"/>
<feColorMatrix in="SourceAlpha" type="matrix" values="0 0 0 0 0 0 0 0 0 0 0 0 0 0 0 0 0 0 127 0" result="hardAlpha"/>
<feOffset dy="4"/>
<feGaussianBlur stdDeviation="2"/>
<feComposite in2="hardAlpha" operator="out"/>
<feColorMatrix type="matrix" values="0 0 0 0 0 0 0 0 0 0 0 0 0 0 0 0 0 0 0.25 0"/>
<feBlend mode="normal" in2="BackgroundImageFix" result="effect1_dropShadow_3_567"/>
<feBlend mode="normal" in="SourceGraphic" in2="effect1_dropShadow_3_567" result="shape"/>
</filter>
</defs>
</svg>
