<svg width="4320" height="1253" viewBox="0 0 4320 1253" fill="none" xmlns="http://www.w3.org/2000/svg">
<g clip-path="url(#clip0_356_13)">
<path d="M1445.45 271.578H1857.81C1956.37 271.578 2043.25 289.093 2118.46 324.126C2194.53 358.362 2253.32 406.927 2294.81 469.825C2337.17 532.726 2358.35 605.973 2358.35 689.571C2358.35 773.17 2337.17 846.42 2294.81 909.318C2253.32 972.216 2194.53 1021.18 2118.46 1056.21C2043.25 1090.45 1956.37 1107.57 1857.81 1107.57H1445.45V271.578ZM1847.44 948.728C1938.21 948.728 2010.39 925.639 2063.99 879.459C2118.46 832.486 2145.69 769.19 2145.69 689.571C2145.69 609.953 2118.46 547.055 2063.99 500.878C2010.39 453.903 1938.21 430.415 1847.44 430.415H1655.52V948.728H1847.44ZM3130.13 676.436H3322.04V1015.61C3272.77 1049.84 3215.72 1076.12 3150.88 1094.43C3086.04 1112.74 3020.77 1121.9 2955.07 1121.9C2860.84 1121.9 2776.12 1103.58 2700.91 1066.96C2625.7 1029.54 2566.48 978.185 2523.26 912.899C2480.9 846.816 2459.72 772.375 2459.72 689.571C2459.72 606.768 2480.9 532.726 2523.26 467.437C2566.48 401.354 2626.13 350.002 2702.21 313.379C2778.28 275.957 2863.87 257.248 2958.96 257.248C3038.49 257.248 3110.68 269.589 3175.51 294.27C3240.34 318.952 3294.81 354.777 3338.89 401.753L3204.03 516.402C3139.21 453.504 3060.97 422.055 2969.33 422.055C2911.41 422.055 2859.97 433.202 2815.02 455.496C2770.07 477.789 2735.06 509.238 2709.99 549.842C2684.92 590.446 2672.38 637.023 2672.38 689.571C2672.38 741.322 2684.92 787.503 2709.99 828.107C2735.06 868.711 2769.64 900.559 2813.73 923.647C2858.68 945.941 2909.68 957.088 2966.74 957.088C3027.25 957.088 3081.72 945.146 3130.13 921.26V676.436ZM3952.87 811.386V1107.57H3742.82V808.999L3391.41 271.578H3614.43L3856.94 642.995L4099.42 271.578H4305.59L3952.87 811.386Z" fill="#212529"/>
<path fill-rule="evenodd" clip-rule="evenodd" d="M159.709 67H1033.88C1124.91 67 1199.42 135.606 1199.42 219.442V1024.56C1199.42 1073.02 1174.54 1116.37 1135.95 1144.35C1132.91 1091.02 1132.25 1043.68 1132.25 1015.91C1132.25 969.451 1133.81 927.046 1136.7 896.682H1100.79C1073.49 1056.84 1017.73 1140.92 938.419 1176.97H652.394C640.45 1162.09 637.093 1137.65 637.093 1097.89V739.819H687.92C814.195 739.819 864.484 827.964 880.463 927.75H916.891C909.049 819.443 907.466 772.28 907.466 725.838C907.466 705.211 906.944 684.36 906.944 658.065C906.944 625.346 907.466 584.349 912.18 523.927H876.03C859.006 600.94 814.195 711.394 687.936 711.394H637.112V359.217C637.112 270.112 653.872 257.78 745.84 257.78H810.561C955.424 257.78 1037.93 323.664 1069.37 532.223H1105.26C1102.12 509.225 1100.81 473.223 1100.81 435.526C1100.81 394.514 1103.7 309.22 1111.54 225.079C1014.63 229.356 878.393 229.356 781.975 229.356C676.409 229.356 440.915 229.356 269.83 225.079V253.521C368.84 257.54 387.186 272.227 387.186 375.808V1081.33C387.186 1130.54 383.186 1159.59 368.248 1177H159.726C68.6973 1177 -5.8125 1108.39 -5.8125 1024.57V219.458C-5.8125 135.606 68.6798 67 159.709 67Z" fill="#35BFBF"/>
</g>
<defs>
<clipPath id="clip0_356_13">
<rect width="4320" height="1253" fill="white"/>
</clipPath>
</defs>
</svg>
