<svg width="10" height="11" viewBox="0 0 10 11" fill="none" xmlns="http://www.w3.org/2000/svg">
<path d="M8.17139 0.211039C7.37618 0.0742872 6.5579 0.168781 5.81599 0.483036C4.71545 1.15512 3.80145 2.08741 3.1564 3.19584C2.51136 4.30427 2.15556 5.55398 2.12109 6.83227C2.10011 6.90645 1.90887 6.8219 1.87095 6.79956C1.57529 6.26072 1.39621 5.66698 1.34509 5.05607C1.29397 4.44515 1.37192 3.8304 1.574 3.25086C1.65469 3.11685 1.38841 2.95094 1.3408 2.9988C1.05009 3.29352 0.794262 3.62 0.578261 3.97192C-0.0221065 5.06636 -0.161426 6.35074 0.190559 7.54613C0.542545 8.74151 1.35741 9.75135 2.45818 10.3563C3.55895 10.9613 4.85673 11.1126 6.06967 10.7773C7.28261 10.442 8.31274 9.64721 8.93635 8.56555C10.4227 5.93333 9.04287 0.688827 8.17139 0.207848V0.211039Z" fill="#82B541"/>
</svg>
